<svg xmlns="http://www.w3.org/2000/svg" width="25.625" height="30" viewBox="0 0 25.625 30">
  <g id="apple_1_" data-name="apple (1)" transform="translate(-2.188)">
    <g id="Сгруппировать_46" data-name="Сгруппировать 46">
      <g id="Сгруппировать_45" data-name="Сгруппировать 45">
        <path id="Контур_445" data-name="Контур 445" d="M20.624,0a7.04,7.04,0,0,0-4.558,2.467,6.115,6.115,0,0,0-1.492,4.751,5.942,5.942,0,0,0,4.6-2.349A6.6,6.6,0,0,0,20.624,0Z"/>
      </g>
    </g>
    <g id="Сгруппировать_48" data-name="Сгруппировать 48">
      <g id="Сгруппировать_47" data-name="Сгруппировать 47">
        <path id="Контур_446" data-name="Контур 446" d="M26.944,10.065a7.594,7.594,0,0,0-5.732-3.043c-2.691,0-3.829,1.288-5.7,1.288-1.927,0-3.392-1.284-5.719-1.284a7.781,7.781,0,0,0-6.262,3.786c-2.169,3.364-1.8,9.688,1.717,15.075C6.509,27.814,8.189,29.981,10.386,30c1.956.019,2.507-1.254,5.156-1.267s3.152,1.284,5.1,1.264c2.2-.017,3.971-2.419,5.229-4.346a21.615,21.615,0,0,0,1.937-3.637A6.614,6.614,0,0,1,26.944,10.065Z"/>
      </g>
    </g>
  </g>
</svg>
