<svg xmlns="http://www.w3.org/2000/svg" width="42" height="39.777" viewBox="0 0 42 39.777">
  <g id="balance" transform="translate(0 -1.111)">
    <g id="Сгруппировать_17" data-name="Сгруппировать 17">
      <g id="Сгруппировать_16" data-name="Сгруппировать 16">
        <path id="Контур_207" data-name="Контур 207" d="M41.929,21.348l-.036.018-6.026-15h2.749a.893.893,0,0,0,0-1.785h-16.8V2a.893.893,0,1,0-1.785,0V4.575H3.24a.893.893,0,1,0,0,1.785H6.106L.071,21.348a.893.893,0,0,0-.071.33,7.423,7.423,0,0,0,14.845,0,.893.893,0,0,0-.071-.33l-6.026-15H20.031v27.6c-4.258.321-7.588,2.91-7.588,6.043a.893.893,0,0,0,.893.893H28.512A.893.893,0,0,0,29.4,40c0-3.133-3.33-5.722-7.588-6.043V6.351h11.4l-5.99,15a.893.893,0,0,0-.071.33,7.423,7.423,0,1,0,14.845,0A.893.893,0,0,0,41.929,21.348ZM7.418,27.329a5.642,5.642,0,0,1-5.561-4.74H12.944A5.642,5.642,0,0,1,7.418,27.329Zm5.2-6.525H2.232l5.2-12.953ZM27.458,39.1H14.381c.661-1.919,3.383-3.4,6.534-3.4S26.8,37.184,27.458,39.1ZM34.537,7.86,39.724,20.8H29.333Zm0,19.469v.009a5.642,5.642,0,0,1-5.526-4.749H40.1A5.642,5.642,0,0,1,34.537,27.329Z" fill="#fff"/>
      </g>
    </g>
  </g>
</svg>
