<svg xmlns="http://www.w3.org/2000/svg" xmlns:xlink="http://www.w3.org/1999/xlink" width="388.873" height="483" viewBox="0 0 388.873 483">
  <defs>
    <linearGradient id="linear-gradient" y1="0.5" x2="1" y2="0.5" gradientUnits="objectBoundingBox">
      <stop offset="0.03" stop-color="#030727"/>
      <stop offset="0.37" stop-color="#10184b"/>
      <stop offset="1" stop-color="#2c3b96"/>
    </linearGradient>
    <linearGradient id="linear-gradient-2" y1="0.5" x2="1" y2="0.5" gradientUnits="objectBoundingBox">
      <stop offset="0.03" stop-color="#111c59"/>
      <stop offset="0.74" stop-color="#070d35"/>
      <stop offset="1" stop-color="#030727"/>
    </linearGradient>
    <linearGradient id="linear-gradient-3" x1="-15.4" y1="51.148" x2="-14.245" y2="51.148" gradientUnits="objectBoundingBox">
      <stop offset="0.04" stop-color="#9f19ab"/>
      <stop offset="0.24" stop-color="#ae25b1"/>
      <stop offset="0.65" stop-color="#d744bf"/>
      <stop offset="1" stop-color="#ff63ce"/>
    </linearGradient>
    <linearGradient id="linear-gradient-4" x1="-15.291" y1="50.863" x2="-14.137" y2="50.863" gradientUnits="objectBoundingBox">
      <stop offset="0.04" stop-color="#ffa98c"/>
      <stop offset="0.32" stop-color="#ffb892"/>
      <stop offset="0.86" stop-color="#fee1a3"/>
      <stop offset="1" stop-color="#feeca8"/>
    </linearGradient>
    <radialGradient id="radial-gradient" cx="0.493" cy="0.502" r="0.38" gradientTransform="translate(-0.766) scale(2.532 1)" gradientUnits="objectBoundingBox">
      <stop offset="0" stop-color="#fff"/>
      <stop offset="1"/>
    </radialGradient>
    <radialGradient id="radial-gradient-2" cx="0.5" cy="0.502" r="0.383" gradientTransform="translate(-0.709) scale(2.418 1)" xlink:href="#radial-gradient"/>
    <radialGradient id="radial-gradient-3" cx="0.499" cy="0.501" r="0.377" gradientTransform="translate(-0.825) scale(2.65 1)" xlink:href="#radial-gradient"/>
    <radialGradient id="radial-gradient-4" cx="0.499" cy="0.5" r="0.381" gradientTransform="translate(-0.757) scale(2.513 1)" xlink:href="#radial-gradient"/>
    <radialGradient id="radial-gradient-5" cx="0.501" cy="0.502" r="0.383" gradientTransform="translate(-0.711) scale(2.421 1)" xlink:href="#radial-gradient"/>
    <radialGradient id="radial-gradient-6" cx="0.495" cy="0.5" r="0.378" gradientTransform="translate(-0.813) scale(2.626 1)" xlink:href="#radial-gradient"/>
    <radialGradient id="radial-gradient-7" cx="0.5" cy="0.5" r="0.379" gradientTransform="translate(-0.798) scale(2.595 1)" xlink:href="#radial-gradient"/>
    <radialGradient id="radial-gradient-8" cx="0.501" cy="0.5" r="0.38" gradientTransform="translate(-0.775) scale(2.55 1)" xlink:href="#radial-gradient"/>
    <radialGradient id="radial-gradient-9" cx="0.5" cy="0.502" r="0.383" gradientTransform="translate(-0.709) scale(2.418 1)" xlink:href="#radial-gradient"/>
    <radialGradient id="radial-gradient-10" cx="0.501" cy="0.501" r="0.382" gradientTransform="translate(-0.712) scale(2.424 1)" xlink:href="#radial-gradient"/>
    <radialGradient id="radial-gradient-11" cx="0.499" cy="0.501" r="0.383" gradientTransform="translate(-0.711) scale(2.421 1)" xlink:href="#radial-gradient"/>
    <radialGradient id="radial-gradient-12" cx="0.5" cy="0.502" r="0.383" gradientTransform="translate(-0.709) scale(2.418 1)" xlink:href="#radial-gradient"/>
    <radialGradient id="radial-gradient-13" cx="0.501" cy="0.5" r="0.38" gradientTransform="translate(-0.775) scale(2.55 1)" xlink:href="#radial-gradient"/>
    <radialGradient id="radial-gradient-14" cx="0.499" cy="0.5" r="0.38" gradientTransform="translate(-0.775) scale(2.55 1)" xlink:href="#radial-gradient"/>
    <radialGradient id="radial-gradient-15" cx="0.5" cy="0.501" r="0.379" gradientTransform="translate(-0.776) scale(2.551 1)" xlink:href="#radial-gradient"/>
    <radialGradient id="radial-gradient-16" cx="0.501" cy="0.5" r="0.38" gradientTransform="translate(-0.775) scale(2.55 1)" xlink:href="#radial-gradient"/>
    <linearGradient id="linear-gradient-5" x1="-4.093" y1="71.301" x2="-5.496" y2="69.923" xlink:href="#linear-gradient-4"/>
    <linearGradient id="linear-gradient-6" x1="-14.974" y1="93.49" x2="-16.255" y2="92.078" xlink:href="#linear-gradient-4"/>
    <linearGradient id="linear-gradient-7" x1="-14.988" y1="94.18" x2="-16.264" y2="92.76" xlink:href="#linear-gradient-4"/>
    <radialGradient id="radial-gradient-17" cx="0.5" cy="0.5" r="0.6" gradientTransform="translate(0.135) scale(0.73 1)" xlink:href="#radial-gradient"/>
    <radialGradient id="radial-gradient-18" cx="0.5" cy="0.5" r="0.552" gradientTransform="translate(0.084) scale(0.832 1)" xlink:href="#radial-gradient"/>
    <radialGradient id="radial-gradient-19" cx="0.501" cy="0.501" r="0.576" gradientTransform="translate(0.11) scale(0.78 1)" xlink:href="#radial-gradient"/>
    <linearGradient id="linear-gradient-8" x1="-54.836" y1="128.875" x2="-44.212" y2="131.393" xlink:href="#linear-gradient-4"/>
    <linearGradient id="linear-gradient-9" x1="-117.633" y1="193.973" x2="-96.365" y2="197.587" xlink:href="#linear-gradient-4"/>
    <linearGradient id="linear-gradient-10" x1="-67.605" y1="171.994" x2="-54.824" y2="175.389" xlink:href="#linear-gradient-4"/>
    <linearGradient id="linear-gradient-11" x1="-64.19" y1="134.036" x2="-52.177" y2="136.699" xlink:href="#linear-gradient-4"/>
    <linearGradient id="linear-gradient-12" x1="-269.298" y1="143.412" x2="-222.965" y2="146.066" xlink:href="#linear-gradient-4"/>
    <linearGradient id="linear-gradient-13" x1="-103.872" y1="148.569" x2="-85.271" y2="151.465" xlink:href="#linear-gradient-4"/>
    <linearGradient id="linear-gradient-14" x1="-59.037" y1="126.053" x2="-48.413" y2="128.573" xlink:href="#linear-gradient-4"/>
    <linearGradient id="linear-gradient-15" x1="-79.678" y1="158.847" x2="-65.7" y2="162.007" xlink:href="#linear-gradient-4"/>
    <linearGradient id="linear-gradient-16" x1="-127.411" y1="188.887" x2="-106.143" y2="192.502" xlink:href="#linear-gradient-4"/>
    <linearGradient id="linear-gradient-17" x1="-68.356" y1="131.163" x2="-56.438" y2="133.829" xlink:href="#linear-gradient-4"/>
    <linearGradient id="linear-gradient-18" x1="-0.203" y1="0.032" x2="0.701" y2="0.616" gradientUnits="objectBoundingBox">
      <stop offset="0.06" stop-color="#200041"/>
      <stop offset="0.26" stop-color="#210243"/>
      <stop offset="0.36" stop-color="#25084b"/>
      <stop offset="0.43" stop-color="#2c1358"/>
      <stop offset="0.47" stop-color="#311b61"/>
      <stop offset="0.48" stop-color="#351f65"/>
      <stop offset="0.5" stop-color="#422c73"/>
      <stop offset="0.51" stop-color="#584188"/>
      <stop offset="0.52" stop-color="#765fa7"/>
      <stop offset="0.53" stop-color="#8770b8"/>
      <stop offset="0.54" stop-color="#7e67ae"/>
      <stop offset="0.56" stop-color="#5c468d"/>
      <stop offset="0.59" stop-color="#442e75"/>
      <stop offset="0.61" stop-color="#362066"/>
      <stop offset="0.63" stop-color="#311b61"/>
      <stop offset="0.67" stop-color="#2a1155"/>
      <stop offset="0.75" stop-color="#230446"/>
      <stop offset="0.81" stop-color="#200041"/>
      <stop offset="1" stop-color="#200041"/>
    </linearGradient>
    <radialGradient id="radial-gradient-20" cx="0.5" cy="0.5" r="0.377" gradientTransform="translate(-0.861) scale(2.722 1)" gradientUnits="objectBoundingBox">
      <stop offset="0" stop-color="#0a103a"/>
      <stop offset="1" stop-color="#10054d"/>
    </radialGradient>
    <linearGradient id="linear-gradient-19" x1="1.066" y1="0.565" x2="-1.768" y2="0.239" gradientUnits="objectBoundingBox">
      <stop offset="0.19" stop-color="#3d065f"/>
      <stop offset="0.93" stop-color="#3d065f"/>
    </linearGradient>
    <linearGradient id="linear-gradient-20" y1="0.5" x2="1" y2="0.5" gradientUnits="objectBoundingBox">
      <stop offset="0" stop-color="#101a54"/>
      <stop offset="0.49" stop-color="#040923"/>
      <stop offset="1" stop-color="#030727"/>
    </linearGradient>
    <linearGradient id="linear-gradient-21" y1="0.5" x2="1" y2="0.5" gradientUnits="objectBoundingBox">
      <stop offset="0" stop-color="#311b61"/>
      <stop offset="0.2" stop-color="#290f52"/>
      <stop offset="0.49" stop-color="#200041"/>
      <stop offset="1" stop-color="#0f001f"/>
    </linearGradient>
    <linearGradient id="linear-gradient-22" y1="0.5" x2="1" y2="0.5" gradientUnits="objectBoundingBox">
      <stop offset="0.01" stop-color="#5ecba1"/>
      <stop offset="1" stop-color="#5ecba1"/>
    </linearGradient>
    <linearGradient id="linear-gradient-23" x1="-90.184" y1="231.474" x2="-86.534" y2="231.474" xlink:href="#linear-gradient-21"/>
    <linearGradient id="linear-gradient-24" x1="0.001" y1="0.5" x2="1" y2="0.5" gradientUnits="objectBoundingBox">
      <stop offset="0" stop-color="#3d065f"/>
      <stop offset="1" stop-color="#0a1344"/>
    </linearGradient>
    <radialGradient id="radial-gradient-21" cx="0.5" cy="0.5" r="0.359" gradientTransform="translate(-2.351) scale(5.702 1)" gradientUnits="objectBoundingBox">
      <stop offset="0" stop-color="#030727"/>
      <stop offset="0.3" stop-color="#030622"/>
      <stop offset="0.68" stop-color="#010312"/>
      <stop offset="1"/>
    </radialGradient>
    <linearGradient id="linear-gradient-25" x1="-0.555" y1="-0.342" x2="0.772" y2="0.717" gradientUnits="objectBoundingBox">
      <stop offset="0.01" stop-color="#9f19ab"/>
      <stop offset="0.43" stop-color="#5f27bd"/>
      <stop offset="0.9" stop-color="#3d065f"/>
    </linearGradient>
    <linearGradient id="linear-gradient-26" x1="-0.555" y1="-0.342" x2="0.772" y2="0.717" xlink:href="#linear-gradient-25"/>
    <linearGradient id="linear-gradient-27" x1="-0.555" y1="-0.342" x2="0.772" y2="0.717" xlink:href="#linear-gradient-25"/>
    <linearGradient id="linear-gradient-28" x1="-0.555" y1="-0.342" x2="0.772" y2="0.717" xlink:href="#linear-gradient-25"/>
    <linearGradient id="linear-gradient-30" x1="-0.555" y1="-0.342" x2="0.771" y2="0.717" xlink:href="#linear-gradient-25"/>
    <linearGradient id="linear-gradient-31" x1="-0.555" y1="-0.342" x2="0.772" y2="0.717" xlink:href="#linear-gradient-25"/>
    <linearGradient id="linear-gradient-32" x1="-0.555" y1="-0.342" x2="0.772" y2="0.717" xlink:href="#linear-gradient-25"/>
    <linearGradient id="linear-gradient-33" x1="-0.555" y1="-0.342" x2="0.772" y2="0.717" xlink:href="#linear-gradient-25"/>
    <linearGradient id="linear-gradient-34" x1="-0.556" y1="-0.342" x2="0.772" y2="0.717" xlink:href="#linear-gradient-25"/>
    <linearGradient id="linear-gradient-36" x1="-0.555" y1="-0.342" x2="0.772" y2="0.717" xlink:href="#linear-gradient-25"/>
    <linearGradient id="linear-gradient-37" y1="0.5" x2="1" y2="0.5" gradientUnits="objectBoundingBox">
      <stop offset="0.01" stop-color="#1e2d84"/>
      <stop offset="0.51" stop-color="#050b33"/>
      <stop offset="1" stop-color="#030727"/>
    </linearGradient>
    <radialGradient id="radial-gradient-22" cx="0.5" cy="0.5" r="1.387" gradientTransform="translate(0.165) scale(0.669 1)" gradientUnits="objectBoundingBox">
      <stop offset="0" stop-color="#711f56"/>
      <stop offset="0.16" stop-color="#6c1e52"/>
      <stop offset="0.36" stop-color="#5c1946"/>
      <stop offset="0.58" stop-color="#431233"/>
      <stop offset="0.82" stop-color="#200918"/>
      <stop offset="1"/>
    </radialGradient>
    <linearGradient id="linear-gradient-38" x1="-0.637" y1="0.83" x2="0.712" y2="0.439" xlink:href="#linear-gradient-25"/>
    <linearGradient id="linear-gradient-39" x1="-2.296" y1="0.5" x2="0.851" y2="0.5" xlink:href="#linear-gradient-25"/>
    <linearGradient id="linear-gradient-40" x1="-8.733" y1="-2.179" x2="1.266" y2="0.715" gradientUnits="objectBoundingBox">
      <stop offset="0.05" stop-color="#dc3daa"/>
      <stop offset="0.12" stop-color="#de46a6"/>
      <stop offset="0.23" stop-color="#e55e9d"/>
      <stop offset="0.36" stop-color="#f0858d"/>
      <stop offset="0.41" stop-color="#f49587"/>
      <stop offset="0.56" stop-color="#fabf98"/>
      <stop offset="0.7" stop-color="#ffe4a7"/>
      <stop offset="0.73" stop-color="#fae4a9"/>
      <stop offset="0.77" stop-color="#eae6b0"/>
      <stop offset="0.82" stop-color="#d0e8ba"/>
      <stop offset="0.87" stop-color="#adebc9"/>
      <stop offset="0.92" stop-color="#7fefdc"/>
      <stop offset="0.97" stop-color="#47f4f3"/>
      <stop offset="1" stop-color="#2af6ff"/>
    </linearGradient>
    <linearGradient id="linear-gradient-41" x1="-0.669" y1="1.081" x2="0.581" y2="0.395" xlink:href="#linear-gradient-25"/>
    <linearGradient id="linear-gradient-42" x1="-0.308" y1="-0.398" x2="0.728" y2="0.73" xlink:href="#linear-gradient-25"/>
    <linearGradient id="linear-gradient-43" x1="-0.305" y1="-0.399" x2="0.725" y2="0.73" xlink:href="#linear-gradient-25"/>
    <linearGradient id="linear-gradient-44" x1="-0.302" y1="-0.4" x2="0.723" y2="0.73" xlink:href="#linear-gradient-25"/>
    <linearGradient id="linear-gradient-45" x1="-0.299" y1="-0.401" x2="0.719" y2="0.73" xlink:href="#linear-gradient-25"/>
    <linearGradient id="linear-gradient-46" x1="-0.296" y1="-0.401" x2="0.717" y2="0.731" xlink:href="#linear-gradient-25"/>
    <linearGradient id="linear-gradient-47" x1="-0.293" y1="-0.402" x2="0.714" y2="0.731" xlink:href="#linear-gradient-25"/>
    <linearGradient id="linear-gradient-48" x1="-0.29" y1="-0.403" x2="0.711" y2="0.731" xlink:href="#linear-gradient-25"/>
    <linearGradient id="linear-gradient-49" x1="-0.287" y1="-0.404" x2="0.709" y2="0.732" xlink:href="#linear-gradient-25"/>
    <linearGradient id="linear-gradient-50" x1="-0.284" y1="-0.405" x2="0.707" y2="0.732" xlink:href="#linear-gradient-25"/>
    <linearGradient id="linear-gradient-51" x1="-0.281" y1="-0.406" x2="0.704" y2="0.733" xlink:href="#linear-gradient-25"/>
    <linearGradient id="linear-gradient-52" x1="-0.278" y1="-0.407" x2="0.702" y2="0.733" xlink:href="#linear-gradient-25"/>
    <linearGradient id="linear-gradient-53" x1="-0.275" y1="-0.408" x2="0.699" y2="0.734" xlink:href="#linear-gradient-25"/>
    <linearGradient id="linear-gradient-54" y1="0.5" x2="1" y2="0.5" gradientUnits="objectBoundingBox">
      <stop offset="0.01" stop-color="#22318c"/>
      <stop offset="1" stop-color="#1e2c7c"/>
    </linearGradient>
    <radialGradient id="radial-gradient-23" cx="0.5" cy="0.5" r="1.387" xlink:href="#radial-gradient-22"/>
    <linearGradient id="linear-gradient-55" y1="0.5" x2="1" y2="0.5" gradientUnits="objectBoundingBox">
      <stop offset="0"/>
      <stop offset="1" stop-color="#3c95f7"/>
    </linearGradient>
    <radialGradient id="radial-gradient-24" cx="0.5" cy="0.5" r="1.08" gradientTransform="translate(0.327) scale(0.346 1)" gradientUnits="objectBoundingBox">
      <stop offset="0" stop-color="#63f7bb"/>
      <stop offset="1" stop-color="#5ecba1"/>
    </radialGradient>
    <linearGradient id="linear-gradient-56" x1="1108.801" y1="-1.55" x2="1099.211" y2="-2.477" gradientUnits="objectBoundingBox">
      <stop offset="0" stop-color="#5513ab"/>
      <stop offset="1" stop-color="#be3bff"/>
    </linearGradient>
    <linearGradient id="linear-gradient-57" x1="1208.022" y1="101.422" x2="1175.575" y2="102.217" gradientUnits="objectBoundingBox">
      <stop offset="0" stop-color="#271273"/>
      <stop offset="0.14" stop-color="#1f0e5c"/>
      <stop offset="0.4" stop-color="#120834"/>
      <stop offset="0.64" stop-color="#080418"/>
      <stop offset="0.85" stop-color="#020106"/>
      <stop offset="1"/>
    </linearGradient>
    <linearGradient id="linear-gradient-58" x1="2594.412" y1="134.029" x2="2549.104" y2="134.749" gradientUnits="objectBoundingBox">
      <stop offset="0" stop-color="#82288f"/>
      <stop offset="0.31" stop-color="#511959"/>
      <stop offset="0.62" stop-color="#250c29"/>
      <stop offset="0.86" stop-color="#0a030b"/>
      <stop offset="1"/>
    </linearGradient>
    <linearGradient id="linear-gradient-59" y1="0.5" x2="1" y2="0.5" gradientUnits="objectBoundingBox">
      <stop offset="0" stop-color="#5ecba1"/>
      <stop offset="0.19" stop-color="#4ba381"/>
      <stop offset="0.75" stop-color="#162f25"/>
      <stop offset="1"/>
    </linearGradient>
    <linearGradient id="linear-gradient-60" x1="-642.377" y1="67.133" x2="-646.431" y2="65.996" xlink:href="#linear-gradient-56"/>
    <linearGradient id="linear-gradient-61" x1="55.601" y1="194.202" x2="41.673" y2="195.136" xlink:href="#linear-gradient-57"/>
    <linearGradient id="linear-gradient-62" x1="81.722" y1="210.518" x2="66.26" y2="211.238" xlink:href="#linear-gradient-58"/>
    <linearGradient id="linear-gradient-63" x1="154.801" y1="229.485" x2="135.239" y2="229.982" gradientUnits="objectBoundingBox">
      <stop offset="0" stop-color="#dc3daa"/>
      <stop offset="0.25" stop-color="#a32d7e"/>
      <stop offset="0.77" stop-color="#2f0d24"/>
      <stop offset="1"/>
    </linearGradient>
    <linearGradient id="linear-gradient-64" y1="0.5" x2="1" y2="0.5" gradientUnits="objectBoundingBox">
      <stop offset="0.04" stop-color="#5ecba1"/>
      <stop offset="1" stop-color="#5ecba1"/>
    </linearGradient>
    <linearGradient id="linear-gradient-65" x1="-34.791" y1="143.546" x2="-37.397" y2="141.573" gradientUnits="objectBoundingBox">
      <stop offset="0" stop-color="#9f79c8"/>
      <stop offset="0.14" stop-color="#a580cb"/>
      <stop offset="0.33" stop-color="#b492d3"/>
      <stop offset="0.55" stop-color="#cdb0e1"/>
      <stop offset="0.58" stop-color="#d1b4e3"/>
      <stop offset="0.76" stop-color="#dbc4e9"/>
      <stop offset="1" stop-color="#ebdef3"/>
    </linearGradient>
    <linearGradient id="linear-gradient-66" y1="0.5" x2="1" y2="0.5" gradientUnits="objectBoundingBox">
      <stop offset="0" stop-color="#5ecba1"/>
      <stop offset="0.15" stop-color="#62d2a6"/>
      <stop offset="0.37" stop-color="#6ee4b5"/>
      <stop offset="0.58" stop-color="#7efcc9"/>
      <stop offset="0.72" stop-color="#8efdd0"/>
      <stop offset="1" stop-color="#b6ffe1"/>
    </linearGradient>
    <linearGradient id="linear-gradient-67" x1="-0.001" y1="0.501" x2="1" y2="0.501" gradientUnits="objectBoundingBox">
      <stop offset="0" stop-color="#5ecba1"/>
      <stop offset="1"/>
    </linearGradient>
    <linearGradient id="linear-gradient-68" x1="0.262" y1="1.064" x2="0.471" y2="0.511" xlink:href="#linear-gradient-25"/>
    <linearGradient id="linear-gradient-69" y1="0.5" x2="1" y2="0.5" gradientUnits="objectBoundingBox">
      <stop offset="0.05" stop-color="#dc3daa"/>
      <stop offset="0.12" stop-color="#de46a6"/>
      <stop offset="0.23" stop-color="#e55e9d"/>
      <stop offset="0.36" stop-color="#f0858d"/>
      <stop offset="0.41" stop-color="#f49587"/>
      <stop offset="0.56" stop-color="#fabf98"/>
      <stop offset="0.7" stop-color="#ffe4a7"/>
      <stop offset="0.74" stop-color="#fae3a7"/>
      <stop offset="0.78" stop-color="#eae1a6"/>
      <stop offset="0.84" stop-color="#d0dda5"/>
      <stop offset="0.9" stop-color="#add7a4"/>
      <stop offset="0.96" stop-color="#7fd0a2"/>
      <stop offset="1" stop-color="#5ecba1"/>
    </linearGradient>
  </defs>
  <g id="Мобилка_1" data-name="Мобилка 1" transform="translate(-0.037 0.03)">
    <g id="Layer_1" data-name="Layer 1">
      <g id="Сгруппировать_1" data-name="Сгруппировать 1" opacity="0.2">
        <path id="Контур_1" data-name="Контур 1" d="M515.839,272.249a25.472,25.472,0,0,1-12.7-3.062L426,225.3,348.87,181.4c-4.634-2.675-7.309-6.907-7.309-11.607,0-5.16,3.2-9.962,8.771-13.156l50.477-28.4a31.276,31.276,0,0,1,15.422-3.925,25.472,25.472,0,0,1,12.7,3.063l77.133,43.9L583.2,215.121c4.634,2.675,7.309,6.907,7.309,11.614,0,5.116-3.194,9.955-8.771,13.156l-50.484,28.4A31.327,31.327,0,0,1,515.839,272.249Z" transform="translate(-228.241 210.714)" opacity="0"/>
        <path id="Контур_2" data-name="Контур 2" d="M351.728,157.694l13.726-7.66c.555-.322,26.232-14.333,26.715-14.048l8.771-4.312c3.983-2.3,9.831-3.033,14.947-3.033a26.1,26.1,0,0,1,12.257,3.194l61.784,35.193,13.156,7.492L578.018,217.2a16.029,16.029,0,0,1,5.847,5.672,12.01,12.01,0,0,1,1.528,5.394c.154,4.956-2.924,9.655-8.384,12.82l-13.727,7.66c-.563.322-26.24,14.333-26.722,14.055L527.79,267.1c-3.983,2.3-9.831,3.063-14.9,3.063a26.1,26.1,0,0,1-12.257-3.194l-61.784-35.193L425.7,224.287,350.763,181.6a15.978,15.978,0,0,1-5.847-5.672,11.987,11.987,0,0,1-1.528-5.394C343.191,165.558,346.239,160.859,351.728,157.694Z" transform="translate(-228.241 210.714)" opacity="0.09"/>
        <path id="Контур_3" data-name="Контур 3" d="M353.1,158.783l13.361-7.382c1.111-.643,25.151-13.3,26.115-12.732l8.53-3.523c3.581-2.068,9.809-2.193,14.362-2.193a27.027,27.027,0,0,1,11.819,3.326l59.935,34.2,12.762,7.309,72.733,41.472a17.329,17.329,0,0,1,5.745,5.394,11.694,11.694,0,0,1,1.666,5.116c.292,4.758-2.587,9.348-7.982,12.462l-13.361,7.382c-1.111.643-25.151,13.288-26.115,12.732l-8.53,3.516c-3.589,2.068-9.809,2.193-14.362,2.193a27.092,27.092,0,0,1-11.826-3.333l-59.935-34.192L425.25,223.22l-72.733-41.464a17.352,17.352,0,0,1-5.745-5.4,11.65,11.65,0,0,1-1.666-5.116C344.821,166.487,347.7,161.9,353.1,158.783Z" transform="translate(-228.241 210.714)" opacity="0.18"/>
        <path id="Контур_4" data-name="Контур 4" d="M354.491,159.864l12.952-7.1c1.674-.965,24.076-12.25,25.523-11.41l8.3-2.734c3.187-1.842,9.787-1.345,13.829-1.345,3.523,0,8.859,2.01,11.388,3.465l58.107,33.22,12.374,7.068L567.5,221.283a19.155,19.155,0,0,1,5.665,5.116,11.519,11.519,0,0,1,1.805,4.868c.446,4.554-2.28,9.041-7.58,12.1l-12.988,7.1c-1.674.972-24.069,12.257-25.523,11.417l-8.259,2.7c-3.179,1.835-9.78,1.345-13.829,1.345-3.523,0-8.859-2.01-11.38-3.465l-58.151-33.2L424.878,222.2l-70.525-40.258a19.186,19.186,0,0,1-5.672-5.116,11.591,11.591,0,0,1-1.805-4.861C346.451,167.378,349.163,162.927,354.491,159.864Z" transform="translate(-228.241 210.714)" opacity="0.27"/>
        <path id="Контур_5" data-name="Контур 5" d="M355.829,160.954l12.608-6.827c2.237-1.286,22.994-11.212,24.924-10.094l8.04-1.944c2.792-1.615,9.758-.49,13.3-.49,3.077,0,8.734,2.324,10.964,3.6l56.339,32.16,11.987,6.856,68.333,39.038a21.631,21.631,0,0,1,5.591,4.846,11.6,11.6,0,0,1,1.944,4.6c.585,4.385-1.981,8.734-7.185,11.738l-12.616,6.827c-2.193,1.286-22.994,11.212-24.924,10.094l-8,1.944c-2.785,1.608-9.758.482-13.3.482-3.077,0-8.727-2.317-10.964-3.6l-56.346-32.16-11.987-6.856-68.362-39.045a21.323,21.323,0,0,1-5.584-4.846,11.541,11.541,0,0,1-1.952-4.6C348.052,168.336,350.625,163.958,355.829,160.954Z" transform="translate(-228.241 210.714)" opacity="0.36"/>
        <path id="Контур_6" data-name="Контур 6" d="M357.2,162.043l12.235-6.578c2.792-1.608,21.927-10.167,24.325-8.771l7.74-1.162c2.39-1.374,9.736.38,12.769.38,2.639,0,8.61,2.639,10.5,3.728l54.526,31.2,11.6,6.637L557.026,225.3a24.83,24.83,0,0,1,5.511,4.568,11.49,11.49,0,0,1,2.083,4.342c.731,4.159-1.674,8.42-6.79,11.373l-12.235,6.578c-2.792,1.608-21.927,10.167-24.325,8.771l-7.74,1.162c-2.39,1.374-9.736-.38-12.769-.38-2.639,0-8.61-2.639-10.5-3.728l-54.526-31.2-11.6-6.637L358,182.325a24.66,24.66,0,0,1-5.511-4.575,11.41,11.41,0,0,1-2.083-4.334C349.667,169.257,352.079,164.988,357.2,162.043Z" transform="translate(-228.241 210.714)" opacity="0.45"/>
        <path id="Контур_7" data-name="Контур 7" d="M358.562,163.124l11.863-6.271c3.348-1.937,20.824-9.129,23.725-7.455l7.477-.373c2-1.148,9.714,1.235,12.243,1.235,2.193,0,8.479,2.924,10.057,3.867l52.713,30.194,11.212,6.447,63.933,36.619a31.525,31.525,0,0,1,5.431,4.29,11.1,11.1,0,0,1,2.193,4.078c.892,3.954-1.374,8.113-6.4,11.015l-11.863,6.271c-3.348,1.937-20.831,9.129-23.725,7.455l-7.484.373c-1.988,1.148-9.707-1.235-12.235-1.235-2.193,0-8.486-2.924-10.057-3.867l-52.713-30.194-11.219-6.425-63.889-36.64a29.661,29.661,0,0,1-5.438-4.29,11.319,11.319,0,0,1-2.193-4.078C351.275,170.185,353.541,166.026,358.562,163.124Z" transform="translate(-228.241 210.714)" opacity="0.55"/>
        <path id="Контур_8" data-name="Контур 8" d="M359.929,164.213l11.49-6c3.9-2.251,19.735-8.084,23.126-6.132l7.221.417c1.586-.921,9.677,2.09,11.695,2.09,1.761,0,8.362,3.274,9.619,4.005l50.9,29.193L484.8,194,546.537,229.4a37.125,37.125,0,0,1,5.358,4.02,12.1,12.1,0,0,1,2.361,3.808c1.045,3.757-1.067,7.806-5.993,10.649l-11.5,6c-3.9,2.251-19.735,8.091-23.119,6.14l-7.221-.417c-1.593.914-9.685-2.1-11.695-2.1-1.754,0-8.354-3.274-9.619-4l-50.893-29.2L423.387,218.1l-61.733-35.376a37.389,37.389,0,0,1-5.358-4.02,12.439,12.439,0,0,1-2.368-3.808C352.883,171.106,355,167.057,359.929,164.213Z" transform="translate(-228.241 210.714)" opacity="0.64"/>
        <path id="Контур_9" data-name="Контур 9" d="M361.3,165.3l11.117-5.716c4.459-2.58,18.66-7.046,22.527-4.817l6.958,1.2c1.191-.687,9.655,2.924,11.176,2.924,1.316,0,8.23,3.589,9.173,4.137l49.088,28.2,10.437,5.993,59.533,34.2c.731.417,4.941,3.092,5.277,3.742a7.974,7.974,0,0,1,2.5,3.538c1.206,3.567-.731,7.506-5.6,10.3l-11.117,5.723c-4.458,2.573-18.66,7.046-22.519,4.817l-6.98-1.177c-1.2.687-9.663-2.924-11.176-2.924-1.323,0-8.237-3.589-9.18-4.137l-49.081-28.22-10.423-5.993-59.525-34.2c-.731-.417-4.948-3.1-5.284-3.742a8,8,0,0,1-2.5-3.545C354.491,172.034,356.457,168.109,361.3,165.3Z" transform="translate(-228.241 210.714)" opacity="0.73"/>
        <path id="Контур_10" data-name="Контур 10" d="M362.663,166.384l10.744-5.445c5.021-2.924,17.542-6.008,21.927-3.494l6.7,1.988c.8-.46,9.626,3.815,10.642,3.815.877,0,8.106,3.9,8.771,4.269l47.268,27.19,10.028,5.789,57.325,32.979c.49.285,4.985,3.041,5.2,3.472a7.769,7.769,0,0,1,2.646,3.274c1.359,3.362-.46,7.2-5.2,9.94L527.972,255.6c-5.021,2.924-17.578,6.008-21.927,3.5l-6.7-2c-.8.46-9.633-3.808-10.642-3.808-.877,0-8.106-3.9-8.771-4.269l-47.239-27.2-10.05-5.782-57.34-32.986c-.49-.278-4.985-3.033-5.2-3.465a7.784,7.784,0,0,1-2.646-3.282C356.1,172.962,357.919,169.125,362.663,166.384Z" transform="translate(-228.241 210.714)" opacity="0.82"/>
        <path id="Контур_11" data-name="Контур 11" d="M364.029,167.473l10.372-5.168c5.577-3.223,16.5-4.97,21.321-2.193l6.439,2.777c.395-.234,9.6,4.671,10.108,4.671s7.989,4.217,8.3,4.385l45.455,26.2,9.663,5.577,55.125,31.765c.241.139,5.014,2.975,5.116,3.194a7.63,7.63,0,0,1,2.777,3.011c1.528,3.158-.154,6.892-4.8,9.575l-10.372,5.168c-5.577,3.216-16.5,4.963-21.328,2.193l-6.432-2.777c-.4.227-9.6-4.671-10.116-4.671s-7.982-4.225-8.3-4.385l-45.441-26.2-9.67-5.57-55.125-31.765c-.241-.139-5.014-2.982-5.116-3.194a7.806,7.806,0,0,1-2.785-3.011C357.7,173.891,359.381,170.156,364.029,167.473Z" transform="translate(-228.241 210.714)" opacity="0.91"/>
        <path id="Контур_12" data-name="Контур 12" d="M498.414,258.179l-67.244-38.826L363.927,180.52c-5.306-3.063-4.641-8.42,1.462-11.965l10-4.89c6.132-3.538,15.408-3.925,20.721-.855l67.244,38.826,67.288,38.833c5.314,3.063,4.649,8.42-1.462,11.965l-10.006,4.882C513,260.862,503.728,261.249,498.414,258.179Z" transform="translate(-228.241 210.714)"/>
      </g>
      <g id="Сгруппировать_2" data-name="Сгруппировать 2" opacity="0.1">
        <path id="Контур_13" data-name="Контур 13" d="M341.693,173.226a12,12,0,0,1-5.964-1.462L283.7,140.59l-52-31.122a6.322,6.322,0,0,1-3.421-5.453c0-2.419,1.506-4.678,4.122-6.184l11.234-5.847a14.706,14.706,0,0,1,7.243-1.842,11.928,11.928,0,0,1,5.964,1.462l52.026,31.173L360.9,153.951a6.308,6.308,0,0,1,3.421,5.453c0,2.419-1.462,4.678-4.115,6.183l-11.241,5.847a14.7,14.7,0,0,1-7.273,1.791Z" transform="translate(-228.241 210.714)" opacity="0"/>
        <path id="Контур_14" data-name="Контур 14" d="M233.84,98.585l1.615-.841c.066,0,3.1-1.564,3.158-1.535l6.169-2.77a14.973,14.973,0,0,1,7-1.462,12.309,12.309,0,0,1,5.767,1.513L304.5,121.609l3.713,2.193,50.659,30.42c1.973,1.14,3.479,3.165,3.479,5.175a6.381,6.381,0,0,1-1.564,4.385,8.039,8.039,0,0,1-1.908,1.564l-1.615.841c-.066.037-3.106,1.564-3.158,1.535l-6.169,2.77a14.96,14.96,0,0,1-7,1.425,12.309,12.309,0,0,1-5.767-1.513l-46.954-28.118-3.713-2.193-50.674-30.34c-1.973-1.14-3.479-3.165-3.479-5.175a6.344,6.344,0,0,1,1.564-4.385,8.04,8.04,0,0,1,1.922-1.608Z" transform="translate(-228.241 210.714)" opacity="0.09"/>
        <path id="Контур_15" data-name="Контур 15" d="M235.353,99.345l1.571-.811a31.659,31.659,0,0,1,3.092-1.4L246,94.9c1.688-.965,4.627-1.009,6.761-1.009a12.82,12.82,0,0,1,5.57,1.586l45.653,27.314,3.611,2.193,49.314,29.507c1.776,1.031,3.545,3.1,3.545,4.9a5.752,5.752,0,0,1-2.821,5.665l-1.579.819a31.748,31.748,0,0,1-3.092,1.389l-5.986,2.237c-1.681.972-4.619,1.009-6.761,1.009a12.689,12.689,0,0,1-5.562-1.586l-45.7-27.336-3.611-2.193-49.314-29.507c-1.776-1.031-3.545-3.1-3.545-4.9a6.315,6.315,0,0,1,1.1-4.115,6.191,6.191,0,0,1,1.769-1.528Z" transform="translate(-228.241 210.714)" opacity="0.18"/>
        <path id="Контур_16" data-name="Контур 16" d="M236.815,100.135l1.542-.789a18.615,18.615,0,0,1,3.019-1.25l5.811-1.7c1.462-.862,4.612-.592,6.512-.592a13.4,13.4,0,0,1,5.372,1.659L303.5,124.028l3.508,2.1L354.959,154.8c1.586.914,3.611,3.019,3.611,4.627,0,1.221.168,2.756-.614,3.867a4.831,4.831,0,0,1-1.564,1.542l-1.535.789a19.237,19.237,0,0,1-3.019,1.243l-5.811,1.7c-1.462.862-4.612.592-6.52.592a13.361,13.361,0,0,1-5.365-1.659l-44.432-26.561-3.508-2.1L238.247,110.17c-1.579-.914-3.6-3.026-3.6-4.634,0-1.221-.168-2.748.614-3.867A4.788,4.788,0,0,1,236.815,100.135Z" transform="translate(-228.241 210.714)" opacity="0.27"/>
        <path id="Контур_17" data-name="Контур 17" d="M238.276,100.865l1.462-.731a13.032,13.032,0,0,1,2.924-1.1l5.628-1.162c1.308-.731,4.612-.183,6.279-.183a14.2,14.2,0,0,1,5.168,1.732L302.9,125.212l3.406,2.032,46.6,27.84c1.381.8,3.655,2.924,3.655,4.385,0,1.067.731,2.777-.139,3.618a2.829,2.829,0,0,1-1.389,1.528l-1.462.731a12.808,12.808,0,0,1-2.96,1.111l-5.621,1.162c-1.316.731-4.619.183-6.279.183a14.242,14.242,0,0,1-5.175-1.732l-43.167-25.794-3.406-2.039-46.552-27.87c-1.389-.8-3.655-2.924-3.655-4.385,0-1.067-.694-2.77.146-3.618a2.807,2.807,0,0,1,1.374-1.5Z" transform="translate(-228.241 210.714)" opacity="0.36"/>
        <path id="Контур_18" data-name="Контур 18" d="M239.738,101.6l1.462-.731c.336-.19,2.6-1.133,2.887-.965l5.445-.621c1.126-.651,4.612.234,6.037.234,1.235,0,4.086,1.286,4.97,1.8l41.91,25.026,3.3,1.973,45.229,27c1.191.687,3.735,2.88,3.735,4.086,0,.914,1.052,2.646.336,3.369a2.127,2.127,0,0,1-1.213,1.513l-1.462.731c-.336.2-2.6,1.133-2.887.965l-5.445.629c-1.126.643-4.612-.234-6.037-.234-1.235,0-4.086-1.294-4.97-1.805L291.129,139.6l-3.3-1.973L242.6,110.587c-1.191-.687-3.742-2.88-3.742-4.086,0-.914-1.045-2.646-.329-3.369a2.193,2.193,0,0,1,1.213-1.535Z" transform="translate(-228.241 210.714)" opacity="0.45"/>
        <path id="Контур_19" data-name="Контур 19" d="M241.2,102.378l1.411-.731c.4-.234,2.478-1.016,2.821-.819l5.263-.088c.936-.541,4.612.643,5.8.643,1.031,0,4.035,1.462,4.773,1.878l40.646,24.252,3.2,1.908L348.965,155.6c.987.57,3.793,2.807,3.793,3.808,0,.731,1.411,2.522.811,3.128.08.46-.278,1.053-1.045,1.5l-1.411.731c-.395.234-2.47,1.023-2.821.826l-5.263.088c-.936.541-4.6-.651-5.8-.651-1.031,0-4.035-1.462-4.773-1.878l-40.6-24.274-3.209-1.915L244.8,110.791c-.987-.57-3.8-2.807-3.8-3.815,0-.731-1.4-2.522-.8-3.121C240.089,103.409,240.469,102.817,241.2,102.378Z" transform="translate(-228.241 210.714)" opacity="0.55"/>
        <path id="Контур_20" data-name="Контур 20" d="M242.662,103.131l1.367-.687c.468-.27,2.354-.906,2.756-.672l5.116.446c.731-.431,4.6,1.06,5.548,1.06.826,0,3.983,1.608,4.576,1.952l39.381,23.477,3.106,1.849,42.51,25.333c.789.46,3.867,2.734,3.867,3.538,0,.614,1.754,2.4,1.279,2.88.19.446-.11,1.045-.87,1.462l-1.367.687c-.468.27-2.354.914-2.756.68l-5.116-.446c-.731.431-4.6-1.067-5.548-1.067-.826,0-3.983-1.608-4.576-1.952l-39.352-23.448-3.106-1.849-42.51-25.341c-.789-.453-3.867-2.734-3.867-3.53,0-.614-1.754-2.4-1.279-2.88C241.631,104.177,241.931,103.57,242.662,103.131Z" transform="translate(-228.241 210.714)" opacity="0.64"/>
        <path id="Контур_21" data-name="Контур 21" d="M244.168,103.891l1.323-.665c.534-.307,2.229-.8,2.69-.526l4.9.979c.555-.329,4.6,1.462,5.306,1.462s3.94,1.769,4.385,2.025l38.124,22.7,3,1.783,41.15,24.507c.6.344,3.932,2.661,3.932,3.26,0,.46,2.112,2.266,1.754,2.631.307.424.058,1.038-.731,1.462l-1.33.658c-.534.314-2.193.8-2.69.534l-4.868-.979c-.563.322-4.6-1.462-5.314-1.462s-3.932-1.769-4.385-2.025l-38.117-22.7-3-1.783-41.15-24.507c-.592-.344-3.925-2.661-3.925-3.26,0-.46-2.12-2.273-1.754-2.631C243.166,104.937,243.393,104.33,244.168,103.891Z" transform="translate(-228.241 210.714)" opacity="0.73"/>
        <path id="Контур_22" data-name="Контур 22" d="M245.644,104.652l1.279-.636a3.833,3.833,0,0,1,2.624-.395l4.722,1.52c.373-.219,4.6,1.893,5.073,1.893a31.9,31.9,0,0,1,4.181,2.1l36.852,21.927,2.924,1.725,39.791,23.667c.395.227,3.991,2.587,3.991,2.989s2.47,2.142,2.229,2.383c.417.409.219,1.031-.526,1.462l-1.279.636a3.833,3.833,0,0,1-2.624.395l-4.722-1.52c-.373.219-4.6-1.893-5.073-1.893a31.9,31.9,0,0,1-4.181-2.1l-36.852-21.927-2.924-1.725-39.791-23.667c-.395-.234-3.991-2.587-3.991-2.989s-2.47-2.142-2.229-2.383C244.7,105.7,244.9,105.083,245.644,104.652Z" transform="translate(-228.241 210.714)" opacity="0.82"/>
        <path id="Контур_23" data-name="Контур 23" d="M247.12,105.4l1.243-.607a3.2,3.2,0,0,1,2.551-.248l4.539,2.054c.19-.11,4.59,2.31,4.831,2.31s3.83,2.083,3.983,2.193l35.588,21.153,2.8,1.659,38.431,22.841a43.488,43.488,0,0,1,4.057,2.712c0,.2,2.821,2.017,2.7,2.134.526.387.387,1.023-.351,1.462l-1.243.607a3.209,3.209,0,0,1-2.551.249l-4.561-2.083c-.183.11-4.59-2.31-4.824-2.31s-3.837-2.083-3.983-2.193l-35.6-21.153-2.8-1.659-38.431-22.841a43.352,43.352,0,0,1-4.049-2.712c0-.2-2.829-2.017-2.7-2.134C246.243,106.472,246.375,105.836,247.12,105.4Z" transform="translate(-228.241 210.714)" opacity="0.91"/>
        <path id="Контур_24" data-name="Контур 24" d="M342.541,163.468l-47.063-27.935L248.414,107.6c-.636-.373-.555-1.016.183-1.462l1.2-.585a2.748,2.748,0,0,1,2.485-.1l47.063,27.935,47.063,27.935c.636.365.556,1.009-.183,1.462l-1.2.585a2.748,2.748,0,0,1-2.485.1Z" transform="translate(-228.241 210.714)"/>
      </g>
      <path id="Контур_25" data-name="Контур 25" d="M397.242,25.143,253.26-57.983c-5.065-2.924-9.173-10.766-9.173-17.542v-93.037c0-6.754,4.108-9.853,9.173-6.929L397.249-92.365c5.058,2.924,9.166,10.766,9.166,17.542v93.03C406.386,24.961,402.3,28.067,397.242,25.143Z" transform="translate(-228.241 210.714)" fill="url(#linear-gradient)"/>
      <path id="Контур_26" data-name="Контур 26" d="M395.473,25.67,251.484-57.457c-5.065-2.924-9.166-10.766-9.166-17.542,0,0,4.1-102.912,9.166-99.988L395.473-91.861c5.065,2.924,9.173,10.774,9.173,17.542V18.741C404.646,25.494,400.538,28.593,395.473,25.67Z" transform="translate(-228.241 210.714)" fill="url(#linear-gradient-2)"/>
      <path id="Контур_27" data-name="Контур 27" d="M385.694-3.3c0,6.688-4.722,9.378-10.547,6.015S364.6-8.771,364.6-15.481s4.722-9.37,10.547-6.008S385.694-9.984,385.694-3.3Z" transform="translate(-228.241 210.714)" fill="url(#linear-gradient-3)"/>
      <path id="Контур_28" data-name="Контур 28" d="M398.989,4.385c0,6.681-4.722,9.37-10.547,6.008S377.88-1.118,377.88-7.8s4.722-9.378,10.547-6.015S398.989-2.31,398.989,4.385Z" transform="translate(-228.241 210.714)" fill="url(#linear-gradient-4)"/>
      <g id="Сгруппировать_3" data-name="Сгруппировать 3">
        <path id="Контур_29" data-name="Контур 29" d="M258.318-105.419l1.893,1.1a1.944,1.944,0,0,1,.819.87,2.456,2.456,0,0,1,.322,1.381v3.011a1.264,1.264,0,0,1-.248.957c-.256.27-.526.175-.892-.037l-2.288-1.323a2.522,2.522,0,0,1-.643-.672l-.387-.468a1.739,1.739,0,0,1-.592-1.126c0-.365.227-.57.5-.417a1.133,1.133,0,0,1,.329.3l.307.358a3.127,3.127,0,0,0,.548.6l2.375,1.374v-3.369l-3.033-1.754v-6.183l3.545,2.054a1.111,1.111,0,0,1,.519,1c0,.5-.249.563-.519.409l-2.514-1.462Z" transform="translate(-228.241 210.714)" fill="url(#radial-gradient)"/>
        <path id="Контур_30" data-name="Контур 30" d="M264.706-105.1c0,.314-.183.6-.519.409a1.279,1.279,0,0,1-.512-1v-.731c0-.307.183-.592.512-.4l4.576,2.639v4.086c0,.49,0,.555-.278.731l-1.462.877c-.263.168-.285.183-.285.672v2.734c0,.453-.146.621-.512.409a1.045,1.045,0,0,1-.519-1v-3.391c0-.468,0-.5.27-.665l1.418-.855c.344-.212.322-.212.322-.833v-1.944Z" transform="translate(-228.241 210.714)" fill="url(#radial-gradient-2)"/>
        <path id="Контур_31" data-name="Контур 31" d="M272.118-92.672l3.538,2.039a1.126,1.126,0,0,1,.512,1c0,.5-.249.563-.512.409l-4.568-2.639V-96.48q0-1.586,1.162-.921l2.887,1.666V-99.1l-3.538-2.039a1.126,1.126,0,0,1-.512-1c0-.512.249-.563.512-.409l3.421,1.973a2.025,2.025,0,0,1,.833.877,2.682,2.682,0,0,1,.314,1.462v2.924c0,.5,0,.87-.314,1.067s-.5.11-.833-.088L272.1-96.012Z" transform="translate(-228.241 210.714)" fill="url(#radial-gradient-3)"/>
        <path id="Контур_32" data-name="Контур 32" d="M280.545-92.584l1.893,1.089a1.981,1.981,0,0,1,.819.87,2.485,2.485,0,0,1,.322,1.381v3a1.264,1.264,0,0,1-.248.957c-.256.27-.526.175-.892,0l-2.288-1.323a2.632,2.632,0,0,1-.68-.643l-.387-.468a1.74,1.74,0,0,1-.592-1.126c0-.365.234-.577.5-.417a1.039,1.039,0,0,1,.329.3l.307.358a3.364,3.364,0,0,0,.548.6l2.375,1.374V-90l-3.033-1.754v-6.183l3.552,2.054a1.118,1.118,0,0,1,.512,1c0,.5-.249.563-.512.4l-2.522-1.462Z" transform="translate(-228.241 210.714)" fill="url(#radial-gradient-4)"/>
        <path id="Контур_33" data-name="Контур 33" d="M294.344-87.987c0,.314-.19.6-.519.409a1.279,1.279,0,0,1-.512-1v-.731c0-.307.183-.592.512-.4l4.568,2.639v4.086c0,.49,0,.555-.278.731l-1.462.877c-.263.168-.285.183-.285.672v2.734c0,.453-.146.621-.519.409a1.053,1.053,0,0,1-.512-1v-3.391c0-.468,0-.5.27-.665l1.418-.855c.336-.212.322-.212.322-.833v-1.937Z" transform="translate(-228.241 210.714)" fill="url(#radial-gradient-5)"/>
        <path id="Контур_34" data-name="Контур 34" d="M301.749-75.561l3.545,2.039a1.126,1.126,0,0,1,.512,1c0,.5-.248.563-.512.409l-4.568-2.639v-4.59q0-1.586,1.162-.921l2.924,1.666v-3.369L301.274-84a1.111,1.111,0,0,1-.512-1c0-.512.241-.563.512-.409l3.413,1.973a1.952,1.952,0,0,1,.833.848,2.624,2.624,0,0,1,.322,1.462v2.924c0,.5,0,.87-.322,1.067s-.49.11-.833-.088L301.763-78.9Z" transform="translate(-228.241 210.714)" fill="url(#radial-gradient-6)"/>
        <path id="Контур_35" data-name="Контур 35" d="M308.648-79.728a1.118,1.118,0,0,1-.519-1c0-.5.249-.563.519-.409l3.538,2.047a2.434,2.434,0,0,1,1.031,2v2.7c0,.563-.088.921-.4,1.133a3.063,3.063,0,0,1,.4,1.6v2.7c0,.8-.446,1.155-1.031.811l-3.538-2.032a1.118,1.118,0,0,1-.519-1c0-.512.249-.563.519-.409l3.538,2.047V-71.87c0-.789-.227-1.162-.512-1.33l-2.017-1.162a1.118,1.118,0,0,1-.519-1c0-.5.249-.563.519-.409l2.017,1.169c.285.161.512.058.512-.731v-2.339Z" transform="translate(-228.241 210.714)" fill="url(#radial-gradient-7)"/>
        <path id="Контур_36" data-name="Контур 36" d="M319.6-74.816a2.522,2.522,0,0,1,1.023,2v8.142c0,.789-.439,1.155-1.023.819L316.571-65.6a2.47,2.47,0,0,1-1.031-2v-8.142c0-.775.46-1.14,1.031-.819Zm0,9.553v-8.142l-3.026-1.747v8.142Z" transform="translate(-228.241 210.714)" fill="url(#radial-gradient-8)"/>
        <path id="Контур_37" data-name="Контур 37" d="M331.387-66.593c0,.307-.183.592-.512.4a1.279,1.279,0,0,1-.519-1v-.731c0-.314.19-.6.519-.409l4.568,2.639v4.086c0,.49,0,.555-.278.731L333.7-60c-.27.168-.292.183-.292.68v2.734c0,.446-.139.621-.512.4a1.045,1.045,0,0,1-.519-1v-3.391c0-.468,0-.5.27-.665l1.418-.855c.344-.212.322-.212.322-.833v-1.937Z" transform="translate(-228.241 210.714)" fill="url(#radial-gradient-9)"/>
        <path id="Контур_38" data-name="Контур 38" d="M338.8-62.317c0,.307-.183.6-.519.409a1.279,1.279,0,0,1-.512-1v-.731c0-.307.183-.6.512-.409l4.568,2.653v4.086c0,.5,0,.555-.278.731l-1.462.87c-.263.168-.285.19-.285.68V-52.3c0,.453-.146.621-.512.409a1.053,1.053,0,0,1-.519-1V-56.28c0-.46,0-.5.27-.665l1.418-.855c.344-.212.322-.2.322-.826V-60.57Z" transform="translate(-228.241 210.714)" fill="url(#radial-gradient-10)"/>
        <path id="Контур_39" data-name="Контур 39" d="M346.21-58.042c0,.307-.19.6-.519.409a1.279,1.279,0,0,1-.512-1v-.731c0-.307.183-.592.512-.4l4.568,2.631v4.093c0,.49,0,.548-.278.731l-1.462.87c-.27.175-.285.19-.285.68v2.734c0,.453-.146.621-.519.409a1.053,1.053,0,0,1-.512-1v-3.4c0-.46,0-.5.263-.658l1.425-.855c.336-.219.314-.212.314-.833V-56.28Z" transform="translate(-228.241 210.714)" fill="url(#radial-gradient-11)"/>
        <path id="Контур_40" data-name="Контур 40" d="M353.614-53.766c0,.314-.183.6-.512.409a1.287,1.287,0,0,1-.519-1v-.731c0-.314.19-.6.519-.409l4.568,2.639v4.086c0,.49,0,.555-.278.731l-1.462.877c-.27.168-.292.183-.292.68v2.726c0,.453-.139.621-.512.409a1.038,1.038,0,0,1-.512-1v-3.391c0-.468,0-.5.263-.665l1.425-.855c.336-.212.314-.212.314-.833v-1.944Z" transform="translate(-228.241 210.714)" fill="url(#radial-gradient-12)"/>
        <path id="Контур_41" data-name="Контур 41" d="M371.463-44.871a2.522,2.522,0,0,1,1.023,2v8.142c0,.789-.439,1.155-1.023.819l-3.026-1.747a2.456,2.456,0,0,1-1.031-2V-45.8c0-.775.46-1.148,1.031-.819Zm0,9.553V-43.46l-3.026-1.747v8.142Z" transform="translate(-228.241 210.714)" fill="url(#radial-gradient-13)"/>
        <path id="Контур_42" data-name="Контур 42" d="M378.867-40.595a2.507,2.507,0,0,1,1.031,2v8.142c0,.789-.446,1.155-1.031.819l-3.026-1.747a2.449,2.449,0,0,1-1.023-2v-8.142c0-.775.46-1.14,1.023-.819Zm0,9.553v-8.142l-3.026-1.747v8.142Z" transform="translate(-228.241 210.714)" fill="url(#radial-gradient-14)"/>
        <path id="Контур_43" data-name="Контур 43" d="M386.278-36.312a2.514,2.514,0,0,1,1.031,2v8.142c0,.782-.446,1.148-1.031.811L383.252-27.1a2.456,2.456,0,0,1-1.031-2v-8.172c0-.775.468-1.14,1.031-.811Zm0,9.546v-8.142l-3.026-1.747v8.15Z" transform="translate(-228.241 210.714)" fill="url(#radial-gradient-15)"/>
        <path id="Контур_44" data-name="Контур 44" d="M393.69-32.036a2.514,2.514,0,0,1,1.023,2v8.142c0,.789-.439,1.155-1.023.811l-3.026-1.747a2.456,2.456,0,0,1-1.031-2.025v-8.12c0-.775.46-1.14,1.031-.811Zm0,9.553v-8.142l-3.026-1.747v8.142Z" transform="translate(-228.241 210.714)" fill="url(#radial-gradient-16)"/>
      </g>
      <path id="Контур_45" data-name="Контур 45" d="M257.762-105.375l1.893,1.089a1.908,1.908,0,0,1,.819.87,2.485,2.485,0,0,1,.322,1.381v3.019a1.279,1.279,0,0,1-.249.957c-.256.27-.519.175-.892-.044l-2.288-1.316a2.749,2.749,0,0,1-.68-.643l-.387-.468a1.732,1.732,0,0,1-.585-1.126c0-.373.227-.577.49-.424a1.17,1.17,0,0,1,.329.307l.314.358a3.341,3.341,0,0,0,.541.6l2.375,1.411v-3.369l-3.033-1.754v-6.183l3.552,2.047a1.14,1.14,0,0,1,.512,1c0,.512-.249.563-.512.409l-2.522-1.462Z" transform="translate(-228.241 210.714)" fill="#ebdef3"/>
      <path id="Контур_46" data-name="Контур 46" d="M264.151-105.054c0,.307-.183.6-.512.409a1.286,1.286,0,0,1-.519-1v-.731c0-.307.19-.6.519-.409l4.568,2.639v4.086c0,.5,0,.555-.278.731l-1.462.87c-.27.168-.292.19-.292.68v2.763c0,.453-.139.621-.512.409a1.053,1.053,0,0,1-.512-1v-3.4c0-.46,0-.5.263-.658l1.418-.862c.344-.212.322-.2.322-.826V-103.3Z" transform="translate(-228.241 210.714)" fill="#ebdef3"/>
      <path id="Контур_47" data-name="Контур 47" d="M271.562-92.635l3.538,2.047a1.111,1.111,0,0,1,.519,1c0,.5-.249.563-.519.4l-4.568-2.631v-4.6c0-1.053.395-1.367,1.162-.921l2.924,1.674v-3.369l-3.538-2.047a1.111,1.111,0,0,1-.519-1c0-.5.249-.555.519-.4l3.413,1.973a1.966,1.966,0,0,1,.833.87,2.712,2.712,0,0,1,.322,1.462v2.887c0,.512,0,.87-.322,1.074s-.5.1-.833-.088l-2.924-1.681Z" transform="translate(-228.241 210.714)" fill="#ebdef3"/>
      <path id="Контур_48" data-name="Контур 48" d="M279.989-92.548l1.893,1.1a1.952,1.952,0,0,1,.826.87,2.536,2.536,0,0,1,.314,1.381v3.011a1.294,1.294,0,0,1-.241.957c-.263.278-.526.175-.9,0l-2.288-1.316a2.536,2.536,0,0,1-.672-.651l-.395-.46a1.732,1.732,0,0,1-.585-1.133c0-.365.227-.57.49-.417a1.25,1.25,0,0,1,.329.3l.314.365a3.34,3.34,0,0,0,.541.6L282-86.576v-3.362l-3.041-1.754v-6.249l3.552,2.047a1.111,1.111,0,0,1,.512,1c0,.512-.241.563-.512.409l-2.522-1.462Z" transform="translate(-228.241 210.714)" fill="#ebdef3"/>
      <path id="Контур_49" data-name="Контур 49" d="M293.826-87.943c0,.307-.183.6-.512.409a1.286,1.286,0,0,1-.519-1v-.731c0-.307.19-.6.519-.409l4.532,2.7v4.086c0,.5,0,.555-.278.731l-1.462.87c-.27.168-.292.19-.292.68v2.734c0,.453-.146.621-.512.409a1.052,1.052,0,0,1-.519-1v-3.4c0-.46,0-.5.27-.658l1.418-.862c.344-.212.322-.2.322-.826V-86.16Z" transform="translate(-228.241 210.714)" fill="#ebdef3"/>
      <path id="Контур_50" data-name="Контур 50" d="M301.2-75.525l3.538,2.047a1.1,1.1,0,0,1,.512,1c0,.5-.241.563-.512.4l-4.568-2.631v-4.6c0-1.053.387-1.367,1.162-.921l2.924,1.674V-81.92l-3.545-2.039a1.14,1.14,0,0,1-.512-1.009c0-.5.248-.555.512-.4l3.421,1.973a2,2,0,0,1,.833.87,2.7,2.7,0,0,1,.314,1.462v2.924c0,.512,0,.87-.314,1.074s-.5.11-.833-.088l-2.924-1.681Z" transform="translate(-228.241 210.714)" fill="#ebdef3"/>
      <path id="Контур_51" data-name="Контур 51" d="M308.093-79.669a1.111,1.111,0,0,1-.512-1c0-.512.241-.563.512-.409l3.538,2.047a2.434,2.434,0,0,1,1.031,2v2.7c0,.563-.08.921-.4,1.133a2.982,2.982,0,0,1,.4,1.6v2.7c0,.8-.446,1.148-1.031.811l-3.538-2.09a1.1,1.1,0,0,1-.512-1c0-.5.241-.555.512-.4l3.538,2.039V-71.87c0-.782-.227-1.155-.512-1.323L309.1-74.355a1.111,1.111,0,0,1-.512-1c0-.512.241-.563.512-.409l2.017,1.162c.285.168.512.058.512-.731v-2.339Z" transform="translate(-228.241 210.714)" fill="#ebdef3"/>
      <path id="Контур_52" data-name="Контур 52" d="M319.042-74.772a2.529,2.529,0,0,1,1.031,2v8.142c0,.789-.446,1.155-1.031.811l-3.026-1.747a2.456,2.456,0,0,1-.994-2v-8.142c0-.775.468-1.14,1.031-.811Zm0,9.553v-8.142l-3.026-1.747v8.142Z" transform="translate(-228.241 210.714)" fill="#ebdef3"/>
      <path id="Контур_53" data-name="Контур 53" d="M330.832-66.557c0,.314-.183.6-.512.409a1.279,1.279,0,0,1-.512-1v-.731c0-.307.183-.592.512-.4l4.568,2.639v4.086c0,.49,0,.548-.278.731l-1.462.87c-.27.175-.285.19-.285.68v2.734c0,.453-.146.621-.519.409a1.038,1.038,0,0,1-.512-1v-3.384c0-.46,0-.5.263-.658l1.425-.855c.336-.212.314-.212.314-.833V-64.81Z" transform="translate(-228.241 210.714)" fill="#ebdef3"/>
      <path id="Контур_54" data-name="Контур 54" d="M338.243-62.281c0,.314-.183.6-.512.409a1.287,1.287,0,0,1-.519-1V-63.6c0-.314.19-.6.519-.409l4.568,2.639v4.086c0,.49,0,.555-.278.731l-1.462.877c-.27.168-.292.183-.292.68v2.734c0,.446-.139.621-.512.4a1.038,1.038,0,0,1-.512-1v-3.391c0-.468,0-.5.263-.665l1.44-.819c.344-.212.322-.212.322-.833v-1.944Z" transform="translate(-228.241 210.714)" fill="#ebdef3"/>
      <path id="Контур_55" data-name="Контур 55" d="M345.654-58c0,.307-.183.592-.519.4a1.272,1.272,0,0,1-.512-1v-.731c0-.307.183-.6.512-.409l4.576,2.639v4.086c0,.5,0,.555-.278.731l-1.462.87c-.263.168-.285.183-.285.68V-48c0,.453-.146.621-.512.409a1.052,1.052,0,0,1-.519-1v-3.4c0-.468,0-.5.27-.665l1.418-.855c.344-.212.322-.212.322-.826V-56.28Z" transform="translate(-228.241 210.714)" fill="#ebdef3"/>
      <path id="Контур_56" data-name="Контур 56" d="M353.066-53.722c0,.307-.19.6-.519.409a1.279,1.279,0,0,1-.512-1v-.731c0-.307.183-.592.512-.4l4.568,2.631v4.086c0,.5,0,.555-.278.731l-1.462.87c-.263.168-.285.19-.285.68v2.734c0,.453-.146.621-.519.409a1.06,1.06,0,0,1-.512-1v-3.4c0-.46,0-.5.27-.658l1.418-.862c.336-.212.314-.2.314-.826V-52Z" transform="translate(-228.241 210.714)" fill="#ebdef3"/>
      <path id="Контур_57" data-name="Контур 57" d="M370.907-44.827a2.514,2.514,0,0,1,1.031,2v8.142c0,.789-.446,1.155-1.031.811l-3.026-1.747a2.456,2.456,0,0,1-1.031-2v-8.142c0-.775.468-1.14,1.031-.811Zm0,9.546v-8.142l-3.026-1.74v8.142Z" transform="translate(-228.241 210.714)" fill="#ebdef3"/>
      <path id="Контур_58" data-name="Контур 58" d="M378.319-40.551a2.522,2.522,0,0,1,1.023,2v8.142c0,.789-.439,1.155-1.023.811l-3.026-1.74a2.485,2.485,0,0,1-1.031-2.01v-8.142c0-.775.46-1.14,1.031-.811Zm0,9.553V-39.14l-3.026-1.747v8.142Z" transform="translate(-228.241 210.714)" fill="#ebdef3"/>
      <path id="Контур_59" data-name="Контур 59" d="M385.723-36.275a2.507,2.507,0,0,1,1.031,2v8.142c0,.789-.446,1.155-1.031.819L382.7-27.044a2.463,2.463,0,0,1-1.023-2V-37.2c0-.775.46-1.148,1.023-.819Zm0,9.553v-8.142L382.7-36.611v8.142Z" transform="translate(-228.241 210.714)" fill="#ebdef3"/>
      <path id="Контур_60" data-name="Контур 60" d="M393.134-32a2.529,2.529,0,0,1,1.031,2.032v8.113c0,.789-.446,1.155-1.031.819l-3.026-1.747a2.456,2.456,0,0,1-1.031-2v-8.106c0-.775.468-1.14,1.031-.819Zm0,9.553v-8.142l-3.026-1.747v8.142Z" transform="translate(-228.241 210.714)" fill="#ebdef3"/>
      <path id="Контур_61" data-name="Контур 61" d="M49.234,99.63V94.251L28.14,82.074v5.379Z" fill="url(#linear-gradient-5)"/>
      <path id="Контур_62" data-name="Контур 62" d="M277.475-117.75v-.292a9.75,9.75,0,0,0-4.429-7.675l-12.228-7.061c-2.449-1.411-4.429-.285-4.429,2.529v.292Z" transform="translate(-228.241 210.714)" fill="url(#linear-gradient-6)"/>
      <path id="Контур_63" data-name="Контур 63" d="M256.388-121.981v.175a9.75,9.75,0,0,0,4.429,7.645l12.228,7.061c2.449,1.418,4.429.285,4.429-2.522v-.175Z" transform="translate(-228.241 210.714)" fill="url(#linear-gradient-7)"/>
      <g id="Сгруппировать_4" data-name="Сгруппировать 4">
        <path id="Контур_64" data-name="Контур 64" d="M256.388-121.806a6.108,6.108,0,0,0,.051.621l20.334,11.738v.175a3.187,3.187,0,0,1-1.1,2.675c1.089-.3,1.8-1.359,1.8-3.026v-.175l-21.087-12.184Z" transform="translate(-228.241 210.714)" fill="url(#radial-gradient-17)"/>
        <path id="Контур_65" data-name="Контур 65" d="M28.14,82.834,48.532,94.6v4.619l.7.409V94.251L28.14,82.074Z" fill="url(#radial-gradient-18)"/>
        <path id="Контур_66" data-name="Контур 66" d="M273.046-125.716l-12.228-7.061a3.017,3.017,0,0,0-3.34-.154,3.45,3.45,0,0,1,2.631.5l12.228,7.061a9.831,9.831,0,0,1,4.385,7.156l.731.431v-.292a9.75,9.75,0,0,0-4.407-7.645Z" transform="translate(-228.241 210.714)" fill="url(#radial-gradient-19)"/>
      </g>
      <path id="Контур_67" data-name="Контур 67" d="M258.252-75.481v-3.735l.651.373v3.793c0,1.316-.5,1.681-1.5,1.1a2.711,2.711,0,0,1-.687-.526l.088-.548a2.558,2.558,0,0,0,.548.424q.446.263.68.088C258.179-74.633,258.252-74.955,258.252-75.481Z" transform="translate(-228.241 210.714)" fill="#ebdef3"/>
      <path id="Контур_68" data-name="Контур 68" d="M261.446-75.861a3.3,3.3,0,0,1,1.235,1.294,3.654,3.654,0,0,1,.475,1.783c0,.731-.175,1.133-.534,1.3a1.3,1.3,0,0,1-1.235-.161,3.325,3.325,0,0,1-1.184-1.279,3.6,3.6,0,0,1-.482-1.8c0-.658.168-1.089.5-1.279a1.213,1.213,0,0,1,1.221.139Zm.782,1.462a1.915,1.915,0,0,0-.8-.936q-.526-.307-.811,0a1.381,1.381,0,0,0-.278.943,2.923,2.923,0,0,0,.3,1.294,1.966,1.966,0,0,0,.775.892.6.6,0,0,0,.731,0,1.213,1.213,0,0,0,.307-.95,3.208,3.208,0,0,0-.227-1.221Z" transform="translate(-228.241 210.714)" fill="#ebdef3"/>
      <path id="Контур_69" data-name="Контур 69" d="M263.968-70.248v-5.972l.643.373V-73.3h0a.57.57,0,0,1,.468-.263,1.118,1.118,0,0,1,.658.175,2.57,2.57,0,0,1,.314.227,3.29,3.29,0,0,1,.329.358,2.617,2.617,0,0,1,.3.475,3.012,3.012,0,0,1,.212.629,3.233,3.233,0,0,1,.088.731v2.427l-.651-.373v-2.339a2.427,2.427,0,0,0-.2-.987,1.462,1.462,0,0,0-.621-.731.65.65,0,0,0-.534-.1.519.519,0,0,0-.336.329.936.936,0,0,0-.051.373V-69.9Z" transform="translate(-228.241 210.714)" fill="#ebdef3"/>
      <path id="Контур_70" data-name="Контур 70" d="M268.039-67.894v-4.122l.57.329.037.731h0a.592.592,0,0,1,.46-.278,1.126,1.126,0,0,1,.731.2,1.915,1.915,0,0,1,.409.314,3.189,3.189,0,0,1,.395.49,2.77,2.77,0,0,1,.329.731,3.435,3.435,0,0,1,.124.928v2.427l-.658-.365v-2.354a2.427,2.427,0,0,0-.2-.987,1.462,1.462,0,0,0-.621-.687.651.651,0,0,0-.534-.1.556.556,0,0,0-.336.351.913.913,0,0,0-.044.322v2.449Z" transform="translate(-228.241 210.714)" fill="#ebdef3"/>
      <path id="Контур_71" data-name="Контур 71" d="M273.44-65.051l.168-.512a3.844,3.844,0,0,0,1.14,1.023.9.9,0,0,0,.731.175c.19-.073.278-.256.278-.548a1.535,1.535,0,0,0-.219-.767,4.327,4.327,0,0,0-.731-.884,3.582,3.582,0,0,1-1.308-2.375c0-.446.146-.731.446-.848a1.352,1.352,0,0,1,1.155.234,3.721,3.721,0,0,1,1.082.906l-.175.5a3.194,3.194,0,0,0-.928-.811.835.835,0,0,0-.731-.146.475.475,0,0,0-.234.46,1.411,1.411,0,0,0,.227.731,5.255,5.255,0,0,0,.731.906,5.737,5.737,0,0,1,.95,1.221,2.419,2.419,0,0,1,.3,1.169.906.906,0,0,1-.439.914,1.423,1.423,0,0,1-1.279-.263,4.429,4.429,0,0,1-.731-.512,3.7,3.7,0,0,1-.431-.57Z" transform="translate(-228.241 210.714)" fill="#ebdef3"/>
      <path id="Контур_72" data-name="Контур 72" d="M277.285-62.559v-4.093l.563.329v.68h0c.256-.351.629-.387,1.126-.1a2,2,0,0,1,.614.577,2.529,2.529,0,0,1,.38.819h0a.731.731,0,0,1,.4-.3,1.023,1.023,0,0,1,.782.161,2.1,2.1,0,0,1,.387.307,2.77,2.77,0,0,1,.373.482,2.368,2.368,0,0,1,.3.731,3.776,3.776,0,0,1,.11.936v2.39l-.629-.365v-2.3a2.632,2.632,0,0,0-.19-1.038,1.462,1.462,0,0,0-.577-.665.57.57,0,0,0-.468-.08.519.519,0,0,0-.307.3,1.4,1.4,0,0,0-.051.344v2.522l-.629-.365v-2.441a2.229,2.229,0,0,0-.19-.921,1.345,1.345,0,0,0-.548-.621.541.541,0,0,0-.5-.066.526.526,0,0,0-.3.344.833.833,0,0,0-.051.336v2.449Z" transform="translate(-228.241 210.714)" fill="#ebdef3"/>
      <path id="Контур_73" data-name="Контур 73" d="M283.432-64.554a.292.292,0,0,1,.292,0,.8.8,0,0,1,.285.3.8.8,0,0,1,.11.395.285.285,0,0,1-.11.263c-.073.044-.168,0-.3-.044a.782.782,0,0,1-.285-.292.855.855,0,0,1-.1-.387A.285.285,0,0,1,283.432-64.554Zm.614,5.9-.643-.373V-63.1l.643.373Z" transform="translate(-228.241 210.714)" fill="#ebdef3"/>
      <path id="Контур_74" data-name="Контур 74" d="M285.267-62.785l.629.146v.979l.928.534v.563L285.9-61.1V-58.9a1.118,1.118,0,0,0,.482,1.067,1.462,1.462,0,0,0,.38.168v.577a1.835,1.835,0,0,1-.577-.227,1.871,1.871,0,0,1-.694-.731,2.521,2.521,0,0,1-.249-1.213v-2.193l-.548-.314v-.563l.548.314Z" transform="translate(-228.241 210.714)" fill="#ebdef3"/>
      <path id="Контур_75" data-name="Контур 75" d="M287.547-56.631V-62.61l.643.373v2.551h0a.607.607,0,0,1,.519-.249,1.133,1.133,0,0,1,.658.183,1.974,1.974,0,0,1,.314.227,2.616,2.616,0,0,1,.329.351,2.677,2.677,0,0,1,.3.482,2.923,2.923,0,0,1,.212.621,3.247,3.247,0,0,1,.088.731v2.427l-.651-.373v-2.346a2.368,2.368,0,0,0-.2-.979,1.462,1.462,0,0,0-.621-.694.658.658,0,0,0-.534-.1.512.512,0,0,0-.336.336.914.914,0,0,0-.044.322v2.47Z" transform="translate(-228.241 210.714)" fill="#ebdef3"/>
      <g id="Сгруппировать_5" data-name="Сгруппировать 5">
        <path id="Контур_76" data-name="Контур 76" d="M329.319-105.251l.2,1.082a4.678,4.678,0,0,1-2.142-.8,7.908,7.908,0,0,1-2.872-2.924A7.974,7.974,0,0,1,323.4-112c0-1.462.387-2.412,1.169-2.858s1.8-.307,3.055.424a7.09,7.09,0,0,1,1.922,1.52l-.263.826a6.271,6.271,0,0,0-1.623-1.323,2.242,2.242,0,0,0-2.3-.314c-.57.344-.841,1.169-.841,2.368a6.49,6.49,0,0,0,.8,3.187,5.971,5.971,0,0,0,2.273,2.317,3.83,3.83,0,0,0,1.718.607Z" transform="translate(-228.241 210.714)" fill="url(#linear-gradient-8)"/>
        <path id="Контур_77" data-name="Контур 77" d="M330.766-103.146v-4.59q0-1.25-.044-2.105l.921.534.051,1.352h.037a.987.987,0,0,1,.636-.731,1.2,1.2,0,0,1,.987.168l.285.19v1.148a2.771,2.771,0,0,0-.358-.234.936.936,0,0,0-.936-.11,1.1,1.1,0,0,0-.482.833,3.777,3.777,0,0,0-.037.541v3.552Z" transform="translate(-228.241 210.714)" fill="url(#linear-gradient-9)"/>
        <path id="Контур_78" data-name="Контур 78" d="M339.244-101.363l-4.086-2.361a3.976,3.976,0,0,0,.577,2.076,3.968,3.968,0,0,0,1.418,1.389,3.939,3.939,0,0,0,1.608.585l.19.979a4.648,4.648,0,0,1-1.944-.694,5.6,5.6,0,0,1-2.083-2.127,5.847,5.847,0,0,1-.767-2.924,2.573,2.573,0,0,1,.731-2.127c.5-.395,1.162-.351,1.981.124a4.2,4.2,0,0,1,1.169.979,4.561,4.561,0,0,1,.731,1.243,7.032,7.032,0,0,1,.365,1.213,5.118,5.118,0,0,1,.117,1.074A3.306,3.306,0,0,1,339.244-101.363Zm-4.071-3.223,3.084,1.783a3.823,3.823,0,0,0-.329-1.535A2.6,2.6,0,0,0,336.8-105.6c-.49-.285-.87-.307-1.14-.058a1.608,1.608,0,0,0-.482,1.074Z" transform="translate(-228.241 210.714)" fill="url(#linear-gradient-10)"/>
        <path id="Контур_79" data-name="Контур 79" d="M344.551-104.973l1.045.607v8.04c0,.548,0,1.126.044,1.754l-.936-.541L344.66-96.3h-.037a.958.958,0,0,1-.731.5,1.959,1.959,0,0,1-1.2-.329,4.707,4.707,0,0,1-1.783-1.966,6.088,6.088,0,0,1-.731-2.858,2.545,2.545,0,0,1,.731-2.156,1.637,1.637,0,0,1,1.856.088,4,4,0,0,1,1.082.921,4.006,4.006,0,0,1,.665,1.1h0Zm0,6.987v-1.155a2.425,2.425,0,0,0-.051-.541,3.588,3.588,0,0,0-.534-1.3,3.047,3.047,0,0,0-.987-.972q-.811-.46-1.272,0a2.12,2.12,0,0,0-.475,1.564,4.736,4.736,0,0,0,.453,2.025A3.128,3.128,0,0,0,342.95-96.9a1.14,1.14,0,0,0,.972.168.892.892,0,0,0,.577-.731,1.886,1.886,0,0,0,.051-.519Z" transform="translate(-228.241 210.714)" fill="url(#linear-gradient-11)"/>
        <path id="Контур_80" data-name="Контур 80" d="M347.409-102.612a.446.446,0,0,1,.475.051,1.191,1.191,0,0,1,.468.482,1.272,1.272,0,0,1,.183.651.446.446,0,0,1-.183.424c-.117.073-.278.051-.49-.066a1.272,1.272,0,0,1-.46-.482,1.3,1.3,0,0,1-.175-.629.461.461,0,0,1,.183-.431Zm1.009,9.655-1.06-.614v-6.666l1.06.614Z" transform="translate(-228.241 210.714)" fill="url(#linear-gradient-12)"/>
        <path id="Контур_81" data-name="Контур 81" d="M350.405-99.718l1.031.241v1.6l1.513.87v.921l-1.513-.87v3.6a1.842,1.842,0,0,0,.8,1.747,2.618,2.618,0,0,0,.614.278l.044.95a3.026,3.026,0,0,1-.936-.38,2.923,2.923,0,0,1-1.14-1.169,4.181,4.181,0,0,1-.409-1.981v-3.655l-.9-.519v-.921l.9.519Z" transform="translate(-228.241 210.714)" fill="url(#linear-gradient-13)"/>
        <path id="Контур_82" data-name="Контур 82" d="M362.158-86.247l.2,1.082a4.714,4.714,0,0,1-2.134-.789,8.04,8.04,0,0,1-2.88-2.924,7.974,7.974,0,0,1-1.111-4.115c0-1.462.395-2.412,1.169-2.858s1.805-.3,3.055.424a7.09,7.09,0,0,1,1.922,1.52l-.263.826A6.3,6.3,0,0,0,360.5-94.4a2.242,2.242,0,0,0-2.3-.314c-.57.344-.862,1.118-.862,2.324a6.49,6.49,0,0,0,.8,3.223,5.971,5.971,0,0,0,2.273,2.317A3.742,3.742,0,0,0,362.158-86.247Z" transform="translate(-228.241 210.714)" fill="url(#linear-gradient-14)"/>
        <path id="Контур_83" data-name="Контур 83" d="M367.647-85.948v2.492a13.264,13.264,0,0,0,.08,1.645l-.95-.541-.08-.892h-.037a1.023,1.023,0,0,1-.731.292,2.032,2.032,0,0,1-1.053-.329,3.428,3.428,0,0,1-1.308-1.316,3.282,3.282,0,0,1-.468-1.623c0-.8.3-1.25.906-1.33a4.649,4.649,0,0,1,2.587.87v-.139a2.854,2.854,0,0,0-.044-.5,3.507,3.507,0,0,0-.168-.585,2.017,2.017,0,0,0-.409-.651,2.835,2.835,0,0,0-.731-.556,2.236,2.236,0,0,0-1.528-.387l-.234-.95a3.077,3.077,0,0,1,1.973.541,4,4,0,0,1,1.71,1.762,5.117,5.117,0,0,1,.482,2.193Zm-1.023,1.257v-1.155q-2.463-1.462-2.463.08a1.915,1.915,0,0,0,.285,1.023,2.018,2.018,0,0,0,.731.731,1.206,1.206,0,0,0,.914.2.731.731,0,0,0,.512-.5,1.061,1.061,0,0,0,.022-.387Z" transform="translate(-228.241 210.714)" fill="url(#linear-gradient-15)"/>
        <path id="Контур_84" data-name="Контур 84" d="M369.35-80.875v-4.583c0-.833,0-1.542-.051-2.105l.928.534.044,1.345h.037a1.031,1.031,0,0,1,.636-.731,1.213,1.213,0,0,1,.987.168,2.635,2.635,0,0,1,.285.2v1.14a2.771,2.771,0,0,0-.358-.234.921.921,0,0,0-.928-.11,1.089,1.089,0,0,0-.49.833,3.889,3.889,0,0,0-.037.548v3.552Z" transform="translate(-228.241 210.714)" fill="url(#linear-gradient-16)"/>
        <path id="Контур_85" data-name="Контур 85" d="M377.149-86.167l1.045.6v8.04c0,.541,0,1.126.051,1.747l-.936-.541-.088-1.155h-.037a.95.95,0,0,1-.731.512,1.988,1.988,0,0,1-1.206-.329,4.722,4.722,0,0,1-1.776-1.973,5.986,5.986,0,0,1-.731-2.858,2.545,2.545,0,0,1,.731-2.156,1.615,1.615,0,0,1,1.849.1,3.881,3.881,0,0,1,1.1.862,4.108,4.108,0,0,1,.665,1.1h0Zm0,6.98v-1.155a2.861,2.861,0,0,0-.044-.534,3.61,3.61,0,0,0-.534-1.3,2.865,2.865,0,0,0-.994-.972q-.8-.471-1.272,0a2.127,2.127,0,0,0-.468,1.571,4.735,4.735,0,0,0,.453,2.025,3.121,3.121,0,0,0,1.264,1.462,1.184,1.184,0,0,0,.972.168.921.921,0,0,0,.577-.731,2.262,2.262,0,0,0,.044-.534Z" transform="translate(-228.241 210.714)" fill="url(#linear-gradient-17)"/>
      </g>
      <path id="Контур_86" data-name="Контур 86" d="M315.585-40.441v-4.787h-.826l-.124-.636h1.038l.548.314v5.475Z" transform="translate(-228.241 210.714)" fill="#ebdef3"/>
      <path id="Контур_87" data-name="Контур 87" d="M319.349-38.27v-4.78h0l-.826.037-.124-.636h1.038l.548.314v5.475Z" transform="translate(-228.241 210.714)" fill="#ebdef3"/>
      <path id="Контур_88" data-name="Контур 88" d="M321.863-36.494l-.49-.278,2.039-4.89.5.292Z" transform="translate(-228.241 210.714)" fill="#ebdef3"/>
      <path id="Контур_89" data-name="Контур 89" d="M327.272-33.695l-3.041-1.761v-.453l.5-.27a6.2,6.2,0,0,0,1.381-.884,1.265,1.265,0,0,0,.395-.957,1.937,1.937,0,0,0-.219-.892,1.8,1.8,0,0,0-.731-.731,1.148,1.148,0,0,0-1.009-.124l-.2-.636a1.5,1.5,0,0,1,1.338.219,2.756,2.756,0,0,1,1.089,1.1,2.814,2.814,0,0,1,.373,1.338,1.6,1.6,0,0,1-.387,1.118,4.786,4.786,0,0,1-1.257.87l-.373.19h0l2.134,1.235Z" transform="translate(-228.241 210.714)" fill="#ebdef3"/>
      <path id="Контур_90" data-name="Контур 90" d="M328.383-37.868a.892.892,0,0,1,1.206-.058,2.873,2.873,0,0,1,1.162,1.381,5.709,5.709,0,0,1,.417,2.273,2.99,2.99,0,0,1-.431,1.886q-.439.5-1.228.044a2.807,2.807,0,0,1-1.14-1.4,5.8,5.8,0,0,1-.446-2.324A2.683,2.683,0,0,1,328.383-37.868Zm1.162.49a.468.468,0,0,0-.416-.088.468.468,0,0,0-.315.285,3.187,3.187,0,0,0-.263,1.528,5.555,5.555,0,0,0,.256,1.791,1.776,1.776,0,0,0,.731,1,.46.46,0,0,0,.415.1.461.461,0,0,0,.316-.286,3.524,3.524,0,0,0,.248-1.535,5.672,5.672,0,0,0-.241-1.776,1.725,1.725,0,0,0-.731-1.016Z" transform="translate(-228.241 210.714)" fill="#ebdef3"/>
      <path id="Контур_91" data-name="Контур 91" d="M505.343,248.546,384.692,178.89c-13.61-7.857-24.639-28.937-24.639-47.085V-189.5c0-9.231-7.587-11.271-2.989-14.618.168-.124,10.766-4.941,10.964-5.014,4.948-1.893,10.233-2.741,16.665.972L505.343-138.5c13.6,7.887,24.639,28.966,24.639,47.136V229.944c0,9.641-3.114,16.511-8.077,19.661-.292.183-13.054,6.257-13.383,6.366C504.123,257.412,511.293,251.981,505.343,248.546Z" transform="translate(-228.241 210.714)" fill="url(#linear-gradient-18)"/>
      <path id="Контур_93" data-name="Контур 93" d="M495.973,252.836,375.322,183.173c-13.61-7.857-24.639-28.937-24.639-47.078V-185.212c0-18.148,11.029-26.488,24.639-18.631l120.651,69.656c13.61,7.857,24.639,28.937,24.639,47.085V234.205C520.612,252.354,509.583,260.693,495.973,252.836Z" transform="translate(-228.241 210.714)" opacity="0.6" fill="url(#radial-gradient-20)"/>
      <path id="Контур_94" data-name="Контур 94" d="M493.824,253.991,373.173,184.335c-13.61-7.857-24.639-28.937-24.639-47.085V-184.058c0-18.141,11.029-26.481,24.639-18.624l120.651,69.656c13.61,7.857,24.646,28.937,24.646,47.085V235.353C518.471,253.509,507.434,261.848,493.824,253.991Z" transform="translate(-228.241 210.714)" fill="url(#linear-gradient-19)"/>
      <path id="Контур_95" data-name="Контур 95" d="M351.9,139.392v-321.7c0-15.9,9.67-23.221,21.6-16.329L493.5-129.371c11.936,6.892,21.606,25.37,21.606,41.274V233.621c0,15.912-9.67,23.221-21.606,16.336l-120.008-69.29C361.566,173.774,351.9,155.3,351.9,139.392Z" transform="translate(-228.241 210.714)" fill="url(#linear-gradient-20)"/>
      <path id="Контур_96" data-name="Контур 96" d="M356.684,141.351V-178.722c0-13.317,8.1-19.435,18.083-13.675l117.45,67.814c9.984,5.767,18.083,21.2,18.083,34.55V230.039c0,13.31-8.1,19.435-18.083,13.668L374.774,175.893C364.79,170.134,356.684,154.66,356.684,141.351Z" transform="translate(-228.241 210.714)" fill="url(#linear-gradient-21)"/>
      <path id="Контур_97" data-name="Контур 97" d="M376.133-188.852c-9.407-5.438-17.037-1.089-17.037,9.714V144.53c0,10.8,7.631,23.967,17.037,29.4l114.753,66.242c9.414,5.431,17.045,1.082,17.045-9.721V-93.22c0-10.8-7.631-23.959-17.045-29.4Z" transform="translate(-228.241 210.714)" fill="url(#linear-gradient-22)"/>
      <path id="Контур_98" data-name="Контур 98" d="M521.708-11.6V-33.286c0-2.777,1.681-6,3.764-7.2h0c2.083-1.2,3.764.073,3.764,2.851v21.686c0,2.777-1.681,5.993-3.764,7.2h0C523.39-7.55,521.708-8.822,521.708-11.6Z" transform="translate(-228.241 210.714)" fill="url(#linear-gradient-23)"/>
      <path id="Контур_99" data-name="Контур 99" d="M523.974-9.114c-1.074,0-1.462-1.338-1.462-2.485V-33.286c0-2.47,1.542-5.445,3.362-6.5a2.273,2.273,0,0,1,1.089-.336c1.074,0,1.462,1.338,1.462,2.485v21.686c0,2.47-1.542,5.438-3.362,6.49A2.193,2.193,0,0,1,523.974-9.114Z" transform="translate(-228.241 210.714)" fill="url(#linear-gradient-24)"/>
      <path id="Контур_100" data-name="Контур 100" d="M523.631-11.044V-32.73c0-2.47,1.542-5.445,3.362-6.5a2.361,2.361,0,0,1,.965-.314,1.148,1.148,0,0,0-.987-.577,2.273,2.273,0,0,0-1.089.336c-1.82,1.052-3.362,4.027-3.362,6.5V-11.6c0,1.148.38,2.485,1.462,2.485a.628.628,0,0,0,.124,0A3.6,3.6,0,0,1,523.631-11.044Z" transform="translate(-228.241 210.714)" fill="url(#radial-gradient-21)"/>
      <g id="Сгруппировать_6" data-name="Сгруппировать 6" opacity="0.3">
        <path id="Контур_101" data-name="Контур 101" d="M376.418-129.846c-9.911-5.716-17.944-1.14-17.944,10.233V138.873c0,11.373,8.04,25.231,17.944,30.954l120.819,69.758c9.911,5.723,17.944,1.14,17.944-10.233V-29.134c0-11.373-8.04-25.231-17.944-30.954Z" transform="translate(-228.241 210.714)" opacity="0" fill="url(#linear-gradient-25)"/>
        <path id="Контур_102" data-name="Контур 102" d="M376.418-129c-9.86-5.694-17.856-1.133-17.856,10.182v257.28c0,11.314,8,25.107,17.856,30.8L496.646,238.7c9.86,5.694,17.856,1.133,17.856-10.182v-257.3c0-11.314-8-25.107-17.856-30.8Z" transform="translate(-228.241 210.714)" opacity="0.09" fill="url(#linear-gradient-26)"/>
        <path id="Контур_103" data-name="Контур 103" d="M376.418-128.15c-9.809-5.665-17.768-1.133-17.768,10.13V137.959c0,11.263,7.96,24.982,17.768,30.654l119.643,69.071c9.816,5.665,17.768,1.133,17.768-10.13V-28.425c0-11.263-7.952-24.99-17.768-30.654Z" transform="translate(-228.241 210.714)" opacity="0.18" fill="url(#linear-gradient-27)"/>
        <path id="Контур_104" data-name="Контур 104" d="M376.469-127.3c-9.765-5.643-17.681-1.126-17.681,10.079V137.491c0,11.212,7.916,24.851,17.681,30.5L495.52,236.7c9.765,5.643,17.681,1.126,17.681-10.079V-28.074c0-11.2-7.916-24.851-17.681-30.5Z" transform="translate(-228.241 210.714)" opacity="0.27" fill="url(#linear-gradient-28)"/>
        <path id="Контур_105" data-name="Контур 105" d="M376.491-126.447c-9.721-5.606-17.6-1.118-17.6,10.035V137.031c0,11.146,7.879,24.734,17.6,30.347L494.95,235.769c9.714,5.613,17.593,1.118,17.593-10.028V-27.716c0-11.154-7.879-24.741-17.593-30.355Z" transform="translate(-228.241 210.714)" opacity="0.36" fill="url(#linear-gradient-28)"/>
        <path id="Контур_106" data-name="Контур 106" d="M376.506-125.614C366.836-131.2,359-126.725,359-115.63V136.534c0,11.1,7.835,24.617,17.505,30.2L494.38,234.783c9.67,5.584,17.542,1.118,17.542-9.977V-27.358c0-11.1-7.835-24.617-17.542-30.194Z" transform="translate(-228.241 210.714)" opacity="0.45" fill="url(#linear-gradient-30)"/>
        <path id="Контур_107" data-name="Контур 107" d="M376.528-124.766c-9.626-5.555-17.425-1.111-17.425,9.926V136.1c0,11.044,7.8,24.493,17.425,30.048L493.81,233.891c9.619,5.555,17.418,1.1,17.418-9.933V-27.007c0-11.044-7.8-24.493-17.418-30.048Z" transform="translate(-228.241 210.714)" opacity="0.55" fill="url(#linear-gradient-31)"/>
        <path id="Контур_108" data-name="Контур 108" d="M376.543-123.926c-9.575-5.526-17.33-1.1-17.33,9.882V135.635c0,10.964,7.755,24.369,17.33,29.894L493.232,232.9c9.575,5.526,17.337,1.1,17.337-9.882V-26.656c0-10.964-7.762-24.369-17.337-29.894Z" transform="translate(-228.241 210.714)" opacity="0.64" fill="url(#linear-gradient-32)"/>
        <path id="Контур_109" data-name="Контур 109" d="M376.565-123.078c-9.5-5.5-17.249-1.1-17.249,9.831V135.167c0,10.927,7.726,24.252,17.249,29.748l116.068,67.032c9.5,5.5,17.249,1.1,17.249-9.831V-26.313c0-10.964-7.726-24.252-17.249-29.748Z" transform="translate(-228.241 210.714)" opacity="0.73" fill="url(#linear-gradient-33)"/>
        <path id="Контур_110" data-name="Контур 110" d="M376.579-122.23c-9.5-5.475-17.154-1.1-17.154,9.78V134.707c0,10.869,7.682,24.12,17.154,29.595l115.484,66.688c9.5,5.475,17.162,1.089,17.162-9.78V-25.947c0-10.869-7.682-24.12-17.162-29.595Z" transform="translate(-228.241 210.714)" opacity="0.82" fill="url(#linear-gradient-34)"/>
        <path id="Контур_111" data-name="Контур 111" d="M376.6-121.389c-9.429-5.438-17.074-1.082-17.074,9.736V134.239c0,10.817,7.645,24,17.074,29.441l114.921,66.352c9.429,5.445,17.074,1.089,17.074-9.728V-25.582c0-10.817-7.645-24-17.074-29.448Z" transform="translate(-228.241 210.714)" opacity="0.91" fill="url(#linear-gradient-32)"/>
        <path id="Контур_112" data-name="Контур 112" d="M376.616-120.542c-9.378-5.416-17.008-1.082-17.008,9.685V133.756c0,10.766,7.6,23.879,16.979,29.295l114.365,66.023c9.378,5.416,16.986,1.082,16.986-9.677V-25.238c0-10.759-7.609-23.879-16.986-29.288Z" transform="translate(-228.241 210.714)" fill="url(#linear-gradient-36)"/>
      </g>
      <path id="Контур_113" data-name="Контур 113" d="M376.133-121.492c-9.407-5.431-17.037-1.082-17.037,9.721V133.705c0,10.8,7.631,23.959,17.037,29.39l114.753,66.242c9.414,5.431,17.045,1.082,17.045-9.721V-25.86c0-10.8-7.631-23.959-17.045-29.39Z" transform="translate(-228.241 210.714)" fill="url(#linear-gradient-37)"/>
      <path id="Контур_114" data-name="Контур 114" d="M490.864-55.249,376.111-121.492c-9.407-5.431-17.038-1.082-17.038,9.721v1.645c0-10.8,7.631-15.152,17.038-9.714L490.864-53.6c9.414,5.438,17.045,18.594,17.045,29.4V-25.86C507.909-36.655,500.278-49.819,490.864-55.249Z" transform="translate(-228.241 210.714)" fill="url(#radial-gradient-22)"/>
      <path id="Контур_115" data-name="Контур 115" d="M481.735-107.224l14.9,8.6c.57.329,1.031.066,1.031-.585a2.244,2.244,0,0,0-1.031-1.769l-14.9-8.6c-.57-.329-1.031-.066-1.031.585a2.244,2.244,0,0,0,1.031,1.769Zm14.9,11.556-14.9-8.6c-.57-.329-1.031-.066-1.031.585a2.259,2.259,0,0,0,1.031,1.769l14.9,8.6c.57.329,1.031.066,1.031-.585a2.244,2.244,0,0,0-1.031-1.769Zm0,5.3-14.9-8.6c-.57-.329-1.031-.066-1.031.585a2.259,2.259,0,0,0,1.031,1.769l14.9,8.6c.57.329,1.031.066,1.031-.585a2.273,2.273,0,0,0-1.031-1.776Z" transform="translate(-228.241 210.714)" fill="#fff"/>
      <path id="Контур_116" data-name="Контур 116" d="M390.452-158.68c0,1.579-1.111,2.193-2.485,1.418a5.467,5.467,0,0,1-2.478-4.276c0-1.579,1.111-2.193,2.478-1.418a5.453,5.453,0,0,1,2.485,4.276Z" transform="translate(-228.241 210.714)" fill="#fff"/>
      <path id="Контур_117" data-name="Контур 117" d="M383-162.993c0,1.571-1.111,2.193-2.478,1.411a5.453,5.453,0,0,1-2.485-4.276c0-1.571,1.111-2.193,2.485-1.418A5.467,5.467,0,0,1,383-162.993Z" transform="translate(-228.241 210.714)" fill="#fff"/>
      <path id="Контур_118" data-name="Контур 118" d="M375.483-167.378c0,1.571-1.111,2.193-2.478,1.411a5.453,5.453,0,0,1-2.485-4.276c0-1.571,1.111-2.193,2.485-1.418A5.475,5.475,0,0,1,375.483-167.378Z" transform="translate(-228.241 210.714)" fill="#fff"/>
      <path id="Контур_119" data-name="Контур 119" d="M433.627-138c-1.688-.979-3.055-.2-3.055,1.74A6.71,6.71,0,0,0,433.627-131c1.688.979,3.055.2,3.055-1.74A6.71,6.71,0,0,0,433.627-138Zm-21.547,12.287c-1.688-.972-3.055-.19-3.055,1.747a6.724,6.724,0,0,0,3.055,5.263c1.688.979,3.055.2,3.055-1.74A6.739,6.739,0,0,0,412.079-125.716ZM455.2-100.865c-1.688-.979-3.055-.2-3.055,1.74a6.739,6.739,0,0,0,3.055,5.27c1.688.972,3.055.19,3.055-1.747a6.724,6.724,0,0,0-3.084-5.263Zm.292-2.368c3.048-.263,4.086-4.122,2.332-8.632s-5.65-7.945-8.691-7.689-4.086,4.122-2.332,8.632,5.628,7.974,8.661,7.718Zm-8.42-18.485c.841-1.191.344-3.655-1.118-5.431s-3.326-2.317-4.174-1.126-.344,3.655,1.118,5.431,3.3,2.346,4.144,1.155Zm-25.721-19.64c-1.462.124-1.959,1.981-1.118,4.144s2.712,3.815,4.173,3.691,1.959-1.981,1.118-4.144-2.741-3.786-4.2-3.662Zm-9,5.116c-.841,1.184-.344,3.655,1.118,5.431s3.326,2.317,4.174,1.126.344-3.618-1.118-5.431-3.362-2.3-4.2-1.074Z" transform="translate(-228.241 210.714)" fill="#fff"/>
      <ellipse id="Эллипс_1" data-name="Эллипс 1" cx="9.816" cy="17.001" rx="9.816" ry="17.001" transform="translate(238.103 205.194) rotate(-30.31)" fill="url(#linear-gradient-38)"/>
      <path id="Контур_120" data-name="Контур 120" d="M401.605-68.9c-1.038-2.661-3.4-4.6-5.116-4.173-14.377,3.6-24.266,16.467-26.189,36.67a7.58,7.58,0,0,0,3.472,6.461l7.879,4.546c1.754,1.009,3.253.395,3.465-1.462,1.652-14.8,8.917-24.347,19.442-27.27,1.462-.395,1.878-2.39.987-4.685Zm59.861,26.766a112.683,112.683,0,0,0-27.68-23.228c-9.926-5.73-19.3-8.537-27.672-8.727-1.842-.044-2.551,2.127-1.535,4.744l3.932,10.079c.9,2.31,2.843,4.166,4.473,4.225,6.315.234,13.361,2.39,20.8,6.688A86.351,86.351,0,0,1,454.626-31.02c1.63,1.82,3.574,2.193,4.473.943l3.932-5.54c.987-1.447.27-4.437-1.564-6.52Zm9.59,12.089c-1.681-2.361-4.049-3.158-5.116-1.7L462.008-26.2c-.892,1.264-.453,3.757.979,5.847,10.532,15.071,17.8,33.008,19.413,49.7a7.718,7.718,0,0,0,3.465,5.475l7.879,4.554c2.083,1.2,3.655.051,3.472-2.456-1.893-22.483-11.782-46.778-26.159-66.973Z" transform="translate(-228.241 210.714)" fill="url(#linear-gradient-39)"/>
      <path id="Контур_121" data-name="Контур 121" d="M394.874-71.9c-14.37,3.6-24.266,16.467-26.189,36.67a7.6,7.6,0,0,0,3.479,6.461l7.908,4.546c1.754,1.009,3.26.395,3.464-1.462,1.615-14.786,8.888-24.325,19.413-27.248,1.462-.395,1.878-2.39.979-4.685L400-67.7C398.923-70.387,396.562-72.323,394.874-71.9Z" transform="translate(-228.241 210.714)" fill="#0fa"/>
      <path id="Контур_122" data-name="Контур 122" d="M461.35-34.44c1.023-1.462.307-4.437-1.535-6.52a112.976,112.976,0,0,0-27.672-23.228c-9.918-5.716-19.3-8.537-27.672-8.727-1.842-.044-2.558,2.127-1.535,4.744l3.925,10.079c.9,2.31,2.851,4.166,4.473,4.225,6.315.234,13.368,2.39,20.809,6.688a86.658,86.658,0,0,1,20.809,17.337c1.623,1.82,3.567,2.193,4.473.943Z" transform="translate(-228.241 210.714)" fill="#0fa"/>
      <path id="Контур_123" data-name="Контур 123" d="M464.325-30.567l-3.932,5.548c-.9,1.264-.46,3.757.979,5.847C471.9-4.1,479.17,13.836,480.785,30.53A7.718,7.718,0,0,0,484.249,36l7.872,4.488c2.083,1.2,3.691.051,3.479-2.456-1.93-22.417-11.819-46.712-26.189-66.9C467.724-31.232,465.363-32.028,464.325-30.567Z" transform="translate(-228.241 210.714)" fill="#0fa"/>
      <g id="Сгруппировать_7" data-name="Сгруппировать 7">
        <path id="Контур_124" data-name="Контур 124" d="M399.961-67.726c-1.038-2.661-3.4-4.6-5.116-4.173a30.976,30.976,0,0,0-17.98,12.425,30.823,30.823,0,0,1,17.279-11.49c1.681-.424,4.042,1.513,5.116,4.174L403.192-56.7a4.933,4.933,0,0,1,.241,3.5c1.016-.687,1.243-2.449.468-4.444Z" transform="translate(-228.241 210.714)" fill="#414042"/>
        <path id="Контур_125" data-name="Контур 125" d="M469.412-28.864c-1.688-2.368-4.049-3.165-5.116-1.7l-.577.811c1.089-1.25,3.333-.446,4.956,1.827,14.377,20.2,24.266,44.49,26.189,66.907a3.756,3.756,0,0,1-.2,1.688,2.752,2.752,0,0,0,.906-2.631C493.671,15.62,483.782-8.676,469.412-28.864Z" transform="translate(-228.241 210.714)" fill="#414042"/>
        <path id="Контур_126" data-name="Контур 126" d="M382.792-24.763a2.882,2.882,0,0,1-.168.731,2.193,2.193,0,0,0,.877-1.652c.789-7.243,2.924-13.215,6.169-17.783C386.059-38.819,383.64-32.518,382.792-24.763Z" transform="translate(-228.241 210.714)" fill="#414042"/>
        <path id="Контур_127" data-name="Контур 127" d="M459.815-40.931a112.47,112.47,0,0,0-27.672-23.258c-9.918-5.716-19.3-8.537-27.672-8.727a1.783,1.783,0,0,0-1.783,1.286,1.776,1.776,0,0,1,1.074-.307c8.369.19,17.754,3,27.672,8.727a113.467,113.467,0,0,1,27.68,23.228c1.835,2.083,2.551,5.073,1.535,6.512l-3.369,4.758c.044-.058.1-.1.146-.153l3.925-5.54C462.373-35.88,461.657-38.877,459.815-40.931Z" transform="translate(-228.241 210.714)" fill="#414042"/>
      </g>
      <path id="Контур_128" data-name="Контур 128" d="M493.364,12.221c0,7.638-5.4,10.715-12.06,6.871S469.244,5.935,469.244-1.7s5.4-10.722,12.06-6.878S493.364,4.575,493.364,12.221Z" transform="translate(-228.241 210.714)" fill="#fff"/>
      <path id="Контур_129" data-name="Контур 129" d="M491.076,10.912c0,6.213-4.385,8.712-9.8,5.584S471.48,5.847,471.48-.4s4.385-8.705,9.794-5.584S491.076,4.707,491.076,10.912Z" transform="translate(-228.241 210.714)" fill="#f59788"/>
      <path id="Контур_130" data-name="Контур 130" d="M482.451,16.146c-5.409-3.121-9.794-10.693-9.794-16.9,0-3.348,1.279-5.606,3.3-6.5-2.7.453-4.48,2.924-4.48,6.849,0,6.213,4.385,13.778,9.794,16.9,2.5,1.462,4.766,1.674,6.5.914a8.128,8.128,0,0,1-5.321-1.264Z" transform="translate(-228.241 210.714)" fill="url(#linear-gradient-40)"/>
      <path id="Контур_131" data-name="Контур 131" d="M486.932,8.522c0,3.581-2.536,5.021-5.657,3.223A12.45,12.45,0,0,1,475.625,2c0-3.581,2.529-5.029,5.65-3.223A12.469,12.469,0,0,1,486.932,8.522Z" transform="translate(-228.241 210.714)" fill="#fff"/>
      <path id="Контур_132" data-name="Контур 132" d="M227.072,214.127l15.071,4.861L238.8,234.351Z" fill="url(#linear-gradient-41)"/>
      <path id="Контур_133" data-name="Контур 133" d="M225.778,214.6l15.071,4.853L237.5,234.819Z" fill="#0fa"/>
      <path id="Контур_134" data-name="Контур 134" d="M225.778,214.6l.8,1.389,13.683,4.407-3.041,13.946.278.475,3.348-15.364Z" fill="#414042"/>
      <path id="Контур_135" data-name="Контур 135" d="M414.374-7.565l-8.464-4.861v-4.385l12.579,7.258v4.2L411.911,17.3l-4.269-2.463Z" transform="translate(-228.241 210.714)" fill="#fff"/>
      <path id="Контур_136" data-name="Контур 136" d="M422.678,21.927a13.522,13.522,0,0,1-1.6-6.629v-.563l3.962,2.288v.87a4.506,4.506,0,0,0,2.193,4.269c.789.46,1.374.519,1.754.183s.57-1.2.57-2.595V13.887l-.073-.044q-1.111,2.032-3.815.468a8.478,8.478,0,0,1-3.465-3.793,13.522,13.522,0,0,1-1.184-5.847V-.855q0-3.655,1.645-4.736t4.722.731a12.345,12.345,0,0,1,4.722,4.736,13.405,13.405,0,0,1,1.637,6.629V22.322q0,7.952-6.4,4.254a11.994,11.994,0,0,1-4.671-4.649Zm6.856-12.762V3.728A4.479,4.479,0,0,0,427.341-.5c-1.462-.841-2.193-.263-2.193,1.718V6.637a4.506,4.506,0,0,0,2.193,4.269c1.469.841,2.193.249,2.193-1.761Z" transform="translate(-228.241 210.714)" fill="#fff"/>
      <path id="Контур_137" data-name="Контур 137" d="M437.99,30.7a13.485,13.485,0,0,1-1.637-6.578V8.04q0-3.655,1.637-4.736c1.089-.731,2.668-.475,4.722.731a12.316,12.316,0,0,1,4.729,4.736,13.485,13.485,0,0,1,1.637,6.578v16.08q0,3.655-1.637,4.736c-1.1.731-2.668.475-4.729-.731A12.25,12.25,0,0,1,437.99,30.7Zm6.9-1.4V12.63A4.509,4.509,0,0,0,442.7,8.362q-2.193-1.25-2.193,1.761v16.7a4.506,4.506,0,0,0,2.193,4.269c1.462.841,2.193.249,2.193-1.761Z" transform="translate(-228.241 210.714)" fill="#fff"/>
      <g id="Сгруппировать_8" data-name="Сгруппировать 8" opacity="0.3">
        <path id="Контур_138" data-name="Контур 138" d="M376.418-14.472c-9.911-5.723-17.944-1.14-17.944,10.233V141.38c0,11.373,8.04,25.231,17.944,30.954l120.819,69.751c9.911,5.723,10.13-3.223,10.13-14.618V81.862c0-11.373-.219-20.867-10.13-26.59Z" transform="translate(-228.241 210.714)" opacity="0" fill="url(#linear-gradient-42)"/>
        <path id="Контур_139" data-name="Контур 139" d="M376.418-12.937c-9.86-5.694-17.856-1.133-17.856,10.182V141.606c0,11.314,8,25.107,17.856,30.8l120.227,69.436c9.86,5.694,10.759-2.836,10.759-14.15V83.324c0-11.314-.9-21.138-10.759-26.832Z" transform="translate(-228.241 210.714)" opacity="0.09" fill="url(#linear-gradient-43)"/>
        <path id="Контур_140" data-name="Контур 140" d="M376.418-11.4c-9.809-5.665-17.768-1.133-17.768,10.13V141.8c0,11.263,7.96,24.99,17.768,30.654l119.643,69.071c9.816,5.665,11.38-2.441,11.38-13.7V84.785c0-11.263-1.564-21.416-11.38-27.044Z" transform="translate(-228.241 210.714)" opacity="0.18" fill="url(#linear-gradient-44)"/>
        <path id="Контур_141" data-name="Контур 141" d="M376.469-9.867c-9.765-5.643-17.681-1.1-17.681,10.079v141.84c0,11.2,7.916,24.851,17.681,30.5L495.52,241.259c9.765,5.635,12-2.054,12-13.259V86.189c0-11.2-2.237-21.686-12-27.321Z" transform="translate(-228.241 210.714)" opacity="0.27" fill="url(#linear-gradient-45)"/>
        <path id="Контур_142" data-name="Контур 142" d="M376.491-8.332C366.77-13.946,358.876-9.451,358.876,1.7V142.271c0,11.154,7.879,24.741,17.6,30.355l118.458,68.391c9.714,5.613,12.623-1.659,12.623-12.813V87.629c0-11.154-2.924-21.927-12.623-27.57Z" transform="translate(-228.241 210.714)" opacity="0.36" fill="url(#linear-gradient-46)"/>
        <path id="Контур_143" data-name="Контур 143" d="M376.506-6.8C366.836-12.382,359-7.916,359,3.179V142.527c0,11.1,7.835,24.617,17.505,30.2L494.38,240.776c9.67,5.584,13.244-1.264,13.244-12.36V89.069c0-11.1-3.574-22.234-13.244-27.818Z" transform="translate(-228.241 210.714)" opacity="0.45" fill="url(#linear-gradient-47)"/>
        <path id="Контур_144" data-name="Контур 144" d="M376.528-5.263C366.917-10.817,359.1-6.374,359.1,4.663V142.725c0,11.037,7.8,24.493,17.425,30.048l117.282,67.7c9.619,5.555,13.887-.877,13.887-11.921V90.509c0-11.037-4.247-22.5-13.887-28.06Z" transform="translate(-228.241 210.714)" opacity="0.55" fill="url(#linear-gradient-48)"/>
        <path id="Контур_145" data-name="Контур 145" d="M376.543-3.728c-9.575-5.533-17.33-1.1-17.33,9.882v136.79c0,10.964,7.755,24.369,17.33,29.9l116.69,67.368c9.575,5.526,14.494-.482,14.494-11.468V91.948c0-10.964-4.919-22.782-14.494-28.308Z" transform="translate(-228.241 210.714)" opacity="0.64" fill="url(#linear-gradient-49)"/>
        <path id="Контур_146" data-name="Контур 146" d="M376.565-2.193c-9.5-5.5-17.249-1.1-17.249,9.838V143.171c0,10.964,7.726,24.244,17.249,29.741L492.633,239.95c9.5,5.5,15.115-.1,15.115-11.029V93.388c0-10.964-5.591-23.053-15.115-28.549Z" transform="translate(-228.241 210.714)" opacity="0.73" fill="url(#linear-gradient-50)"/>
        <path id="Контур_147" data-name="Контур 147" d="M376.579-.665c-9.5-5.467-17.154-1.089-17.154,9.787V143.39c0,10.876,7.682,24.12,17.154,29.595l115.484,66.7c9.5,5.467,15.736.3,15.736-10.576V94.828c0-10.869-6.257-23.331-15.736-28.8Z" transform="translate(-228.241 210.714)" opacity="0.82" fill="url(#linear-gradient-51)"/>
        <path id="Контур_148" data-name="Контур 148" d="M376.6.87c-9.429-5.438-17.074-1.082-17.074,9.736V143.631c0,10.817,7.645,24,17.074,29.441l114.921,66.352c9.429,5.445,16.358.694,16.358-10.13V96.268c0-10.817-6.929-23.6-16.358-29.046Z" transform="translate(-228.241 210.714)" opacity="0.91" fill="url(#linear-gradient-52)"/>
        <path id="Контур_149" data-name="Контур 149" d="M376.616,2.4c-9.378-5.416-17.008-1.082-17.008,9.685V143.843c0,10.759,7.6,23.872,16.979,29.288l114.365,66.016c9.378,5.416,16.986,1.082,16.986-9.685V97.708c0-10.759-7.609-23.871-16.986-29.288Z" transform="translate(-228.241 210.714)" fill="url(#linear-gradient-53)"/>
      </g>
      <path id="Контур_150" data-name="Контур 150" d="M376.133,4.02c-9.407-5.438-17.037-1.1-17.037,9.714V144.567c0,10.8,7.631,23.967,17.037,29.4l114.753,66.242c9.414,5.431,17.045,1.082,17.045-9.721V99.652c0-10.8-7.631-23.959-17.045-29.4Z" transform="translate(-228.241 210.714)" fill="url(#linear-gradient-54)"/>
      <path id="Контур_151" data-name="Контур 151" d="M490.864,70.255,376.133,4.02c-9.407-5.438-17.037-1.1-17.037,9.714v1.652c0-10.8,7.631-15.152,17.037-9.721L490.886,71.907c9.414,5.431,17.045,18.594,17.045,29.39V99.652C507.909,88.849,500.278,75.693,490.864,70.255Z" transform="translate(-228.241 210.714)" fill="url(#radial-gradient-23)"/>
      <path id="Контур_152" data-name="Контур 152" d="M361.369,92.709s9.772-46.223,35.42-31.429,21.993,29.514,45.2,42.912c25.655,14.808,17.1-29.375,64.744-1.871v92.212L360.338,115.747Z" transform="translate(-228.241 210.714)" opacity="0.5" fill="url(#linear-gradient-55)"/>
      <g id="Сгруппировать_9" data-name="Сгруппировать 9">
        <path id="Контур_153" data-name="Контур 153" d="M473.958,90.969a.782.782,0,0,1-.38-.1L362.853,26.817a.731.731,0,0,1-.278-1.038.767.767,0,0,1,1.038-.278L474.36,89.558a.731.731,0,0,1-.38,1.411Z" transform="translate(-228.241 210.714)" fill="#25054d"/>
      </g>
      <path id="Контур_154" data-name="Контур 154" d="M451.585,108.408c-2.785,0-6.067-.936-10.123-3.274C429.95,98.483,424.8,91.349,419.834,84.442c-5.219-7.251-10.62-14.75-23.572-22.227q-7.949-4.594-14.779-1.579c-13.376,5.964-19,32.028-19.077,32.292a1.061,1.061,0,0,1-2.076-.439c.234-1.111,5.942-27.394,20.29-33.79,5.16-2.3,10.781-1.74,16.7,1.681,13.346,7.7,18.879,15.393,24.237,22.826,5.058,7.031,9.845,13.668,20.962,20.093,10.182,5.847,14.428,2.025,19.8-2.858,7.477-6.8,16.811-15.269,44.944.987a1.06,1.06,0,1,1-1.06,1.835c-26.81-15.481-35.12-7.923-42.459-1.257C460.166,105.251,456.709,108.408,451.585,108.408Z" transform="translate(-228.241 210.714)" fill="url(#radial-gradient-24)"/>
      <g id="Сгруппировать_10" data-name="Сгруппировать 10">
        <path id="Контур_155" data-name="Контур 155" d="M250.629,388.062l4.437,3.245V306.434l-2.661-1.776-1.776.219Z" fill="url(#linear-gradient-56)"/>
      </g>
      <g id="Сгруппировать_11" data-name="Сгруппировать 11">
        <path id="Контур_156" data-name="Контур 156" d="M483.285,188.494h-3.808l-.161-35.288-.2-56.28c0-1.528.855-2.77,1.908-2.763h0c1.045,0,1.9,1.25,1.9,2.77l.2,56.28Z" transform="translate(-228.241 210.714)" fill="url(#linear-gradient-57)"/>
        <path id="Контур_157" data-name="Контур 157" d="M481.867,170.463l.124-27.044v-.892l.117-43.92a5.117,5.117,0,0,0-.314-1.813.848.848,0,0,0-.731-.607h0a.877.877,0,0,0-.731.636,4.538,4.538,0,0,0-.3,1.681l.117,44.059v1.1l.117,25.085Z" transform="translate(-228.241 210.714)" fill="url(#linear-gradient-58)"/>
        <path id="Контур_158" data-name="Контур 158" d="M480.851,166.494l.344-24.814.344-42.67c0-.409-.234-.731-.519-.731h0c-.292,0-.526.336-.526.731l.183,42.67Z" transform="translate(-228.241 210.714)" fill="url(#linear-gradient-59)"/>
      </g>
      <g id="Сгруппировать_12" data-name="Сгруппировать 12">
        <path id="Контур_159" data-name="Контур 159" d="M254.517,279.3l-3.793-1.111.409,27.606,2.273.614,1.513-.051Z" fill="url(#linear-gradient-60)"/>
      </g>
      <g id="Сгруппировать_13" data-name="Сгруппировать 13">
        <path id="Контур_160" data-name="Контур 160" d="M479.477,70.167H482.4l.073,9.5.066,15.079c0,.409-.658.731-1.462.731h0c-.8,0-1.462-.329-1.462-.731l-.066-15.086Z" transform="translate(-228.241 210.714)" fill="url(#linear-gradient-61)"/>
        <path id="Контур_161" data-name="Контур 161" d="M480.383,71.4l-.117,8.5v.292l-.11,13.821c0,.117.1.5.285.57a1.045,1.045,0,0,0,.665.19h0a1.074,1.074,0,0,0,.694-.2c.168-.073.27-.417.27-.534l-.11-13.887V79.8l-.1-7.887Z" transform="translate(-228.241 210.714)" fill="url(#linear-gradient-62)"/>
        <path id="Контур_162" data-name="Контур 162" d="M481.289,72.645l-.307,7.806-.307,13.419c0,.132.212.241.468.241h0c.263,0,.468-.11.468-.241l-.161-13.419Z" transform="translate(-228.241 210.714)" fill="url(#linear-gradient-63)"/>
      </g>
      <path id="Контур_163" data-name="Контур 163" d="M476.312,91a9.268,9.268,0,0,0,4.21,7.258c2.324,1.345,4.21.27,4.21-2.4a9.29,9.29,0,0,0-4.21-7.265C478.2,87.249,476.312,88.323,476.312,91Z" transform="translate(-228.241 210.714)" fill="url(#linear-gradient-64)"/>
      <path id="Контур_164" data-name="Контур 164" d="M482.4,99.594h0a4.561,4.561,0,0,1-2.273-.68A9.977,9.977,0,0,1,475.537,91c0-2.237,1.243-3.742,3.084-3.742a4.612,4.612,0,0,1,2.266.68,10,10,0,0,1,4.59,7.923,4.173,4.173,0,0,1-.811,2.668A2.836,2.836,0,0,1,482.4,99.594Zm-3.779-10.825c-1.462,0-1.564,1.7-1.564,2.193a8.581,8.581,0,0,0,3.83,6.578,3.172,3.172,0,0,0,1.513.475h0a1.323,1.323,0,0,0,1.082-.5,2.755,2.755,0,0,0,.482-1.725,8.574,8.574,0,0,0-3.837-6.578,3.106,3.106,0,0,0-1.491-.446Z" transform="translate(-228.241 210.714)" fill="#ebdef3"/>
      <path id="Контур_165" data-name="Контур 165" d="M432.888,186.25c0,2.368-1.674,3.318-3.728,2.127a8.193,8.193,0,0,1-3.728-6.425c0-2.361,1.667-3.318,3.728-2.127A8.223,8.223,0,0,1,432.888,186.25Z" transform="translate(-228.241 210.714)" fill="url(#linear-gradient-65)"/>
      <path id="Контур_166" data-name="Контур 166" d="M443.238,191.966c0,2.368-1.674,3.318-3.728,2.127a8.194,8.194,0,0,1-3.728-6.425c0-2.368,1.666-3.318,3.728-2.127a8.215,8.215,0,0,1,3.728,6.425Z" transform="translate(-228.241 210.714)" fill="url(#linear-gradient-66)"/>
      <path id="Контур_167" data-name="Контур 167" d="M429.161,179.8l-16.08-8.822v8.384l16.08,9.012c2.054,1.191,3.728.241,3.728-2.127a8.223,8.223,0,0,0-3.728-6.447Z" transform="translate(-228.241 210.714)" fill="url(#linear-gradient-67)"/>
      <path id="Контур_168" data-name="Контур 168" d="M416.143,155.442l40.8,23.55V156.5l-40.8-23.557Zm-41.589-40.434v10.335a11.694,11.694,0,0,0,5.3,9.144l33.11,19.121v-22.5l-33.11-19.121c-2.931-1.688-5.3-.336-5.3,3.019Zm162.569,99.243L504.686,158.3v25.684L460.1,158.235v23.089l44.585,25.75v25.677Z" transform="translate(-228.241 210.714)" opacity="0.5" fill="url(#linear-gradient-68)"/>
      <path id="Контур_169" data-name="Контур 169" d="M415.025,156.882l40.8,23.55v-22.5l-40.8-23.55Zm-41.589-40.434v10.335a11.7,11.7,0,0,0,5.292,9.166l33.117,19.113V132.55L378.728,113.43C375.8,111.741,373.436,113.094,373.436,116.448Zm162.569,99.243L503.6,159.74v25.677l-44.585-25.743v23.089L503.6,208.507v25.684Z" transform="translate(-228.241 210.714)" fill="url(#linear-gradient-69)"/>
      <path id="Контур_170" data-name="Контур 170" d="M306.763,426.975l1-.57-32.438-55.944v2.288Z" fill="#414042"/>
      <g id="Сгруппировать_14" data-name="Сгруппировать 14">
        <path id="Контур_171" data-name="Контур 171" d="M374.174,113.825a3.9,3.9,0,0,1,3.435.5l33.117,19.121V154.4l1.118.643V132.55L378.728,113.43C376.776,112.3,375.088,112.56,374.174,113.825Z" transform="translate(-228.241 210.714)" fill="#414042"/>
        <path id="Контур_172" data-name="Контур 172" d="M275.736,396.284l-44.973-25.794v1.535l43.855,25.151Z" fill="#414042"/>
        <path id="Контур_173" data-name="Контур 173" d="M186.784,346.634l39.681,22.914V390.5l1.118.643v-22.49l-40.8-23.557Z" fill="#414042"/>
      </g>
      <path id="Контур_174" data-name="Контур 174" d="M103.014,67.624V50.257l9.378,14.1-9.378,3.267Z" fill="#5ecba1" opacity="0.8"/>
      <path id="Контур_175" data-name="Контур 175" d="M90.245,60.322V42.956l9.378,14.1-9.378,3.267Z" fill="#5ecba1" opacity="0.6"/>
      <path id="Контур_176" data-name="Контур 176" d="M77.476,53.02V35.654l9.378,14.092L77.476,53.02Z" fill="#5ecba1" opacity="0.4"/>
      <path id="Контур_177" data-name="Контур 177" d="M64.715,45.718V28.352l9.37,14.092-9.37,3.274Z" fill="#5ecba1" opacity="0.25"/>
      <path id="Контур_178" data-name="Контур 178" d="M51.946,38.417V21.05l9.378,14.092-9.378,3.274Z" fill="#5ecba1" opacity="0.15"/>
      <path id="Контур_179" data-name="Контур 179" d="M311.068,192.712V175.345l9.378,14.092-9.378,3.274Z" fill="#5ecba1" opacity="0.8"/>
      <path id="Контур_180" data-name="Контур 180" d="M298.3,185.41V168.043l9.378,14.092L298.3,185.41Z" fill="#5ecba1" opacity="0.6"/>
      <path id="Контур_181" data-name="Контур 181" d="M285.537,178.108V160.734l9.37,14.1-9.37,3.274Z" fill="#5ecba1" opacity="0.4"/>
      <path id="Контур_182" data-name="Контур 182" d="M272.768,170.8V153.432l9.378,14.1-9.378,3.267Z" fill="#5ecba1" opacity="0.25"/>
      <path id="Контур_183" data-name="Контур 183" d="M260,163.5V146.131l9.378,14.1L260,163.5Z" fill="#5ecba1" opacity="0.15"/>
      <path id="Контур_184" data-name="Контур 184" d="M334.669,368.671V351.3l9.378,14.1-9.378,3.267Z" fill="#5ecba1" opacity="0.8"/>
      <path id="Контур_185" data-name="Контур 185" d="M321.9,361.369V344l9.378,14.1-9.378,3.267Z" fill="#5ecba1" opacity="0.6"/>
      <path id="Контур_186" data-name="Контур 186" d="M309.138,354.067V336.7l9.37,14.1-9.37,3.267Z" fill="#5ecba1" opacity="0.4"/>
      <path id="Контур_187" data-name="Контур 187" d="M296.369,346.765V329.4l9.378,14.092-9.378,3.274Z" fill="#5ecba1" opacity="0.25"/>
      <path id="Контур_188" data-name="Контур 188" d="M283.6,339.464V322.1l9.378,14.092-9.378,3.274Z" fill="#5ecba1" opacity="0.15"/>
      <path id="Контур_189" data-name="Контур 189" d="M358.613,295.47V278.1l9.378,14.1-9.378,3.267Z" fill="#5ecba1" opacity="0.8"/>
      <path id="Контур_190" data-name="Контур 190" d="M345.852,288.168V270.8l9.37,14.1-9.37,3.267Z" fill="#5ecba1" opacity="0.6"/>
      <path id="Контур_191" data-name="Контур 191" d="M333.083,280.867V263.5l9.378,14.1-9.378,3.267Z" fill="#5ecba1" opacity="0.4"/>
      <path id="Контур_192" data-name="Контур 192" d="M320.314,273.565V256.2l9.378,14.092-9.378,3.275Z" fill="#5ecba1" opacity="0.25"/>
      <path id="Контур_193" data-name="Контур 193" d="M307.545,266.263V248.9l9.378,14.092-9.378,3.274Z" fill="#5ecba1" opacity="0.15"/>
      <path id="Контур_194" data-name="Контур 194" d="M129.312,242.662V225.3l9.378,14.092-9.378,3.274Z" fill="#5ecba1" opacity="0.8"/>
      <path id="Контур_195" data-name="Контур 195" d="M116.543,235.36V217.994l9.378,14.092-9.378,3.274Z" fill="#5ecba1" opacity="0.6"/>
      <path id="Контур_196" data-name="Контур 196" d="M103.782,228.051V210.685l9.37,14.1-9.37,3.267Z" fill="#5ecba1" opacity="0.4"/>
      <path id="Контур_197" data-name="Контур 197" d="M91.013,220.749V203.383l9.37,14.1-9.37,3.267Z" fill="#5ecba1" opacity="0.25"/>
      <path id="Контур_198" data-name="Контур 198" d="M78.244,213.447V196.081l9.378,14.1-9.378,3.267Z" fill="#5ecba1" opacity="0.15"/>
      <path id="Контур_199" data-name="Контур 199" d="M158.461,381.761V364.395l9.378,14.1-9.378,3.267Z" fill="#5ecba1" opacity="0.8"/>
      <path id="Контур_200" data-name="Контур 200" d="M145.692,374.459V357.093l9.378,14.1-9.378,3.267Z" fill="#5ecba1" opacity="0.6"/>
      <path id="Контур_201" data-name="Контур 201" d="M132.93,367.158V349.791l9.37,14.092-9.37,3.274Z" fill="#5ecba1" opacity="0.4"/>
      <path id="Контур_202" data-name="Контур 202" d="M120.161,359.856V342.49l9.378,14.092-9.378,3.274Z" fill="#5ecba1" opacity="0.25"/>
      <path id="Контур_203" data-name="Контур 203" d="M107.393,352.554V335.18l9.378,14.1-9.378,3.275Z" fill="#5ecba1" opacity="0.15"/>
      <path id="Контур_204" data-name="Контур 204" d="M581.533,163.139v-6.4a16.71,16.71,0,0,1-3.823-4.795,10.891,10.891,0,0,1-1.221-4.912q0-2.5,1.381-3.406t3.655.153v-1.513l1.93,1.118V144.9a11.84,11.84,0,0,1,4.956,8.179l-3.362-1.462a6.213,6.213,0,0,0-1.593-3.362v5.972a19.273,19.273,0,0,1,4.385,5.08A10.232,10.232,0,0,1,589,164.023q0,2.763-1.462,3.815t-4.049,0v2.851l-1.952-1.118v-2.777a13.048,13.048,0,0,1-3.735-4.13,14.838,14.838,0,0,1-1.842-5.716l3.472,1.579a9.193,9.193,0,0,0,.8,2.566,8.661,8.661,0,0,0,1.3,2.047Zm0-16.029a1.33,1.33,0,0,0-1.25.314,1.82,1.82,0,0,0-.468,1.352,4.232,4.232,0,0,0,.424,1.747,7.074,7.074,0,0,0,1.294,1.871Zm1.93,17.344a1.615,1.615,0,0,0,1.623-.124,1.937,1.937,0,0,0,.621-1.63,4.6,4.6,0,0,0-.526-2.068,7.594,7.594,0,0,0-1.718-2.127Z" transform="translate(-228.241 210.714)" fill="#5ecba1" opacity="0.8"/>
      <g id="Сгруппировать_15" data-name="Сгруппировать 15" opacity="0.8">
        <path id="Контур_205" data-name="Контур 205" d="M560.885-2.551V-5.591l-1.856-1.053-.921-.534v3.026l-2.924-1.7V-8.873l-2.719-1.571V-32.613l2.719,1.564v-3.026l2.924,1.7v3.026l2.068,1.2c.249.139.482.285.731.424v-3.041l2.924,1.7v3.3a10.687,10.687,0,0,1,1.776,1.893,11.836,11.836,0,0,1,1.462,2.712,7.981,7.981,0,0,1,.592,2.924,3.654,3.654,0,0,1-.731,2.434,2.258,2.258,0,0,1-1.988.8,11.694,11.694,0,0,1,2.719,3.581,8.974,8.974,0,0,1,.987,3.9,5.117,5.117,0,0,1-.614,2.587,2.566,2.566,0,0,1-1.681,1.323,4.086,4.086,0,0,1-2.514-.409V-.848Zm-4.532-24.12v5.116l2.558,1.462q2.28,1.316,2.836,1.564a1.739,1.739,0,0,0,1.571.11,1.462,1.462,0,0,0,.577-1.4,4.129,4.129,0,0,0-.5-1.959,4.759,4.759,0,0,0-1.462-1.63q-.577-.409-3.333-2Zm0,8.815v5.928l3.611,2.09a21.3,21.3,0,0,0,2.675,1.4,1.462,1.462,0,0,0,1.418-.066,1.813,1.813,0,0,0,.548-1.564A4.6,4.6,0,0,0,564.182-12a5.49,5.49,0,0,0-1.221-1.718,19.733,19.733,0,0,0-3.457-2.317Z" transform="translate(-228.241 210.714)" fill="#5ecba1"/>
      </g>
      <path id="Контур_206" data-name="Контур 206" d="M617.151,80.093l-.848,4.1a9.561,9.561,0,0,0-3.589-3.479q-2.346-1.359-3.808-.263a3.457,3.457,0,0,0-1.177,2.061l7.952,4.583-.468,2.3-7.77-4.48V87.11l7.368,4.254-.461,2.3-6.578-3.8a12.111,12.111,0,0,0,1.118,3.428,9.772,9.772,0,0,0,3.757,4.122q2.777,1.6,4.385.592v5.051a9.063,9.063,0,0,1-4.385-1.462,18.639,18.639,0,0,1-6.929-7.309,21.2,21.2,0,0,1-2.441-7.031l-2.142-1.235.46-2.3,1.418.819V82.359l-1.893-1.1.461-2.3,1.725.994a6.169,6.169,0,0,1,2.412-4.13q2.734-1.769,7.178.8a16.548,16.548,0,0,1,4.254,3.472Z" transform="translate(-228.241 210.714)" fill="#5ecba1" opacity="0.8"/>
    </g>
  </g>
</svg>
