<svg xmlns="http://www.w3.org/2000/svg" width="36" height="35.949" viewBox="0 0 36 35.949">
  <g id="building_1_" data-name="building (1)" transform="translate(0 -0.026)">
    <g id="Сгруппировать_18" data-name="Сгруппировать 18">
      <path id="Контур_208" data-name="Контур 208" d="M34.946,33.867H34.61V20.99a1.054,1.054,0,0,0-1.054-1.054h-6.5V1.079A1.054,1.054,0,0,0,26,.026H9.985A1.054,1.054,0,0,0,8.931,1.079v6.9h-6.5A1.054,1.054,0,0,0,1.372,9.038V33.867H1.054a1.054,1.054,0,0,0,0,2.108H34.946a1.054,1.054,0,0,0,0-2.108ZM32.5,22.044v2.771H27.052V22.044ZM8.931,20.925H3.48V16.374H8.931v4.551ZM3.48,23.033H8.931v4.551H3.48ZM8.931,10.092v4.174H3.48V10.092ZM3.48,29.693H8.931v4.174H3.48ZM11.039,2.133H24.944V33.867H22.713V27.955A1.054,1.054,0,0,0,21.659,26.9H14.324a1.054,1.054,0,0,0-1.054,1.054v5.911H11.039Zm4.339,31.733V29.009H20.6v4.857Zm11.674,0V26.923H32.5v6.944Z" fill="#5ecba1"/>
      <path id="Контур_209" data-name="Контур 209" d="M14.2,6.421h7.586a1.054,1.054,0,1,0,0-2.108H14.2a1.054,1.054,0,1,0,0,2.108Z" fill="#5ecba1"/>
      <path id="Контур_210" data-name="Контур 210" d="M14.2,10.879h7.586a1.054,1.054,0,1,0,0-2.108H14.2a1.054,1.054,0,1,0,0,2.108Z" fill="#5ecba1"/>
      <path id="Контур_211" data-name="Контур 211" d="M14.2,15.337h7.586a1.054,1.054,0,1,0,0-2.108H14.2a1.054,1.054,0,1,0,0,2.108Z" fill="#5ecba1"/>
      <path id="Контур_212" data-name="Контур 212" d="M14.2,19.795h7.586a1.054,1.054,0,0,0,0-2.108H14.2a1.054,1.054,0,0,0,0,2.108Z" fill="#5ecba1"/>
      <path id="Контур_213" data-name="Контур 213" d="M14.2,24.252h7.586a1.054,1.054,0,0,0,0-2.108H14.2a1.054,1.054,0,0,0,0,2.108Z" fill="#5ecba1"/>
    </g>
  </g>
</svg>
