<svg xmlns="http://www.w3.org/2000/svg" width="26.527" height="30" viewBox="0 0 26.527 30">
  <g id="google-play" transform="translate(-1.736)">
    <path id="Контур_438" data-name="Контур 438" d="M26.977,12.751,21.9,9.816l-6.961,5.2,6.961,5.2,5.1-2.944a2.641,2.641,0,0,0-.017-4.523Z" fill="#ff9100"/>
    <path id="Контур_439" data-name="Контур 439" d="M16.7,15.018l-6.16,7.919L2.528,29.243a2.674,2.674,0,0,1-.792-1.9V2.649a2.674,2.674,0,0,1,.792-1.9L10.536,7.1Z" fill="#25d9f8"/>
    <path id="Контур_440" data-name="Контур 440" d="M16.7,15.018l-1.76,2.27v-4.54Z" fill="#00c0f1"/>
    <path id="Контур_441" data-name="Контур 441" d="M21.9,9.808,16.7,15.018,2.528.748a3.969,3.969,0,0,1,.546-.4A2.606,2.606,0,0,1,5.749.4l9.187,5.4Z" fill="#7fe881"/>
    <path id="Контур_442" data-name="Контур 442" d="M21.9,9.808,16.7,15.018l-1.76-1.76V5.8Z" fill="#5bc980"/>
    <path id="Контур_443" data-name="Контур 443" d="M21.9,20.227l-6.969,4.013-9.2,5.373A2.681,2.681,0,0,1,4.376,30a2.732,2.732,0,0,1-1.3-.352,3.973,3.973,0,0,1-.546-.4L16.7,15.018Z" fill="#ff637b"/>
    <path id="Контур_444" data-name="Контур 444" d="M21.9,20.227l-6.969,4.013V16.778l1.76-1.76Z" fill="#e63950"/>
  </g>
</svg>
