<svg id="loading" xmlns="http://www.w3.org/2000/svg" width="16" height="16" viewBox="0 0 16 16">
  <g id="Сгруппировать_20" data-name="Сгруппировать 20">
    <path id="Контур_216" data-name="Контур 216" d="M14.783,6.783H12.835a1.217,1.217,0,1,0,0,2.434h1.948a1.217,1.217,0,0,0,0-2.434Z" fill="#5ecba1"/>
    <path id="Контур_217" data-name="Контур 217" d="M4.382,8A1.217,1.217,0,0,0,3.165,6.783H1.217a1.217,1.217,0,1,0,0,2.434H3.165A1.217,1.217,0,0,0,4.382,8Z" fill="#5ecba1"/>
    <path id="Контур_218" data-name="Контур 218" d="M7.973,11.618a1.217,1.217,0,0,0-1.217,1.217v1.948a1.217,1.217,0,1,0,2.434,0V12.835A1.217,1.217,0,0,0,7.973,11.618Z" fill="#5ecba1"/>
    <path id="Контур_219" data-name="Контур 219" d="M7.973,0A1.217,1.217,0,0,0,6.756,1.217V3.165a1.217,1.217,0,1,0,2.434,0V1.217A1.217,1.217,0,0,0,7.973,0Z" fill="#5ecba1"/>
    <path id="Контур_220" data-name="Контур 220" d="M12.279,10.558a1.217,1.217,0,0,0-1.721,1.721l1.377,1.378a1.217,1.217,0,0,0,1.721-1.721Z" fill="#5ecba1"/>
    <path id="Контур_221" data-name="Контур 221" d="M4.064,2.343A1.217,1.217,0,1,0,2.343,4.064L3.721,5.442A1.217,1.217,0,1,0,5.442,3.721Z" fill="#5ecba1"/>
    <path id="Контур_222" data-name="Контур 222" d="M3.72,10.558,2.343,11.936a1.217,1.217,0,0,0,1.721,1.721l1.378-1.378A1.217,1.217,0,0,0,3.72,10.558Z" fill="#5ecba1"/>
    <path id="Контур_223" data-name="Контур 223" d="M11.419,5.8a1.213,1.213,0,0,0,.86-.356l1.378-1.378a1.217,1.217,0,1,0-1.721-1.721L10.558,3.721A1.217,1.217,0,0,0,11.419,5.8Z" fill="#5ecba1"/>
  </g>
</svg>
