<svg xmlns="http://www.w3.org/2000/svg" width="14" height="13.999" viewBox="0 0 14 13.999">
  <g id="fast-forward-double-right-arrows-symbol" transform="translate(0 -0.001)">
    <g id="Сгруппировать_22" data-name="Сгруппировать 22">
      <g id="_x35__11_">
        <g id="Сгруппировать_21" data-name="Сгруппировать 21">
          <path id="Контур_224" data-name="Контур 224" d="M13.656,6.169,7.832.345A1.176,1.176,0,0,0,6.168,2.009L11.16,7,6.168,11.991a1.176,1.176,0,0,0,1.664,1.664l5.824-5.824A1.175,1.175,0,0,0,13.656,6.169Zm-7-.353L2.03.943a1.147,1.147,0,0,0-1.682,0,1.3,1.3,0,0,0,0,1.772L4.131,6.7.348,10.689a1.3,1.3,0,0,0,0,1.772,1.147,1.147,0,0,0,1.682,0L6.653,7.588A1.3,1.3,0,0,0,6.653,5.816Z" fill="#5ecba1"/>
        </g>
      </g>
    </g>
  </g>
</svg>
